<svg width="1920" height="560" viewBox="0 0 1920 560" fill="none" xmlns="http://www.w3.org/2000/svg">
<g clip-path="url(#clip0_812_6472)">
<path d="M1420 566L1415.37 560.598L1384.19 524.169L1357 402" stroke="#101027" stroke-width="2.20758" stroke-linecap="round" stroke-linejoin="round"/>
<path d="M1357 402L1367.71 408.276L1383.4 417.51L1420.73 439.429L1458.1 461.367L1466.84 464H1523.07H1618.07H1695" stroke="#101027" stroke-width="2.20758" stroke-linecap="round" stroke-linejoin="round"/>
<path d="M1259 86L1270.57 112.102L1271.69 114.623L1287.73 121.688L1292.91 123.978L1334.75 149.002L1344.97 225.152L1355.74 230.715L1367.16 236.586H1412.62L1426.06 242.822H1472.89L1488.58 249.425H1536.84H1585.09L1604.84 256.451H1654.64L1677.31 263.939H1728.73L1754.66 271.946H1807.79L1837.41 280.493H1892.43L1920 288" stroke="#101027" stroke-width="2.20758" stroke-linecap="round" stroke-linejoin="round"/>
<path d="M1544 220L1531.49 136.584L1529 120" stroke="#101027" stroke-width="2.20758" stroke-linecap="round" stroke-linejoin="round"/>
<path d="M1216 12L1223.15 108.34L1267.34 212.633L1311.53 231.303L1321.66 237.191L1332.4 243.447L1343.79 250.069L1355.9 257.116L1368.82 264.626L1382.58 272.657L1397.33 281.229H1452.34H1507.34H1562.35H1617.36H1672.38L1698.16 290.439H1755.15L1785.02 300.323H1844.15L1878.66 311H1920" stroke="#101027" stroke-width="2.20758" stroke-linecap="round" stroke-linejoin="round"/>
<path d="M1090 91L1093.74 181.648L1097.7 243.558L1101.92 250.169L1106.4 257.204L1111.17 264.702L1116.26 272.72L1121.72 281.278H1176.76L1184.6 290.472L1193.03 300.341L1202.12 311H1263.62L1275.95 322.507H1339.95H1403.95H1467.97H1531.96H1595.96H1659.96H1723.96H1787.95L1823.03 334.997H1889.75L1920 345" stroke="#101027" stroke-width="2.20758" stroke-linecap="round" stroke-linejoin="round"/>
<path d="M1890 58L1910.96 144.536L1920 165" stroke="#101027" stroke-width="2.20758" stroke-linecap="round" stroke-linejoin="round"/>
<path d="M256 198L272 111" stroke="#101027" stroke-width="2.20758" stroke-linecap="round" stroke-linejoin="round"/>
<path d="M1216 12L1258.98 86.0307L1267.34 212.293L1276.19 236.81L1285.58 243.054L1295.53 249.665L1306.12 256.7L1317.4 264.198L1329.43 272.216L1342.32 280.773H1397.33L1413.14 289.967H1470.13H1527.15H1584.14H1641.15H1698.16L1725.87 299.835H1785.02L1817.2 310.494H1878.66L1915.97 322H1920" stroke="#101027" stroke-width="2.20758" stroke-linecap="round" stroke-linejoin="round"/>
<path d="M1703 459L1669.76 439.414H1580.5L1547.23 417H1462.77H1384" stroke="#101027" stroke-width="2.20758" stroke-linecap="round" stroke-linejoin="round"/>
<path d="M1049 118L1094 181" stroke="#101027" stroke-width="2.20758" stroke-linecap="round" stroke-linejoin="round"/>
<path d="M1920 515L1893.24 439.797L1885.37 417.658L1885.29 417.446L1878.72 398.949L1876.98 397.754L1850.78 379.815L1826.98 363.515L1822.69 360.586L1816 356" stroke="#101027" stroke-width="2.20758" stroke-linecap="round" stroke-linejoin="round"/>
<path d="M1012 210L1033.39 237.09L1037.44 242.212L1043.15 249.445L1048.68 256.448L1052.01 260.669L1057 267" stroke="#101027" stroke-width="2.20758" stroke-linecap="round" stroke-linejoin="round"/>
<path d="M1920 457L1907.91 439.891L1894.91 421.509L1892.24 417.729L1879 399" stroke="#101027" stroke-width="2.20758" stroke-linecap="round" stroke-linejoin="round"/>
<path d="M1458 462L1459.45 464.648L1492.09 524.239L1531.19 560.607L1537 566" stroke="#101027" stroke-width="2.20758" stroke-linecap="round" stroke-linejoin="round"/>
<path d="M1790 379H1719.36H1642.97H1566.56H1490.17H1413.78L1392.79 362.781L1373.66 348H1304.02H1234.4H1164.76H1095.12H1025.48H955.856H886.215H816.575H746.934H677.294H607.653H538.032H468.391H398.751H329.11H259.469H189.848H120.208H50.567H0" stroke="#101027" stroke-width="2.20758" stroke-linecap="round" stroke-linejoin="round"/>
<path d="M1655 489L1617.61 464.472L1580.34 440H1491.06H1421" stroke="#101027" stroke-width="2.20758" stroke-linecap="round" stroke-linejoin="round"/>
<path d="M1475 43L1488.3 110.902L1502.31 148.996L1517.07 225.571L1532.7 231.154L1549.19 237.046H1594.63H1640.09H1685.53L1707.1 243.305H1753.89L1778.21 249.931H1826.44L1853.81 256.982H1903.56L1920 261" stroke="#101027" stroke-width="2.20758" stroke-linecap="round" stroke-linejoin="round"/>
<path d="M303 88L315.094 104.85L337.76 136.373L342 141" stroke="#101027" stroke-width="2.20758" stroke-linecap="round" stroke-linejoin="round"/>
<path d="M1012 210L1014 276" stroke="#101027" stroke-width="2.20758" stroke-linecap="round" stroke-linejoin="round"/>
<path d="M1806 566L1763.24 492.019L1708 456" stroke="#101027" stroke-width="2.20758" stroke-linecap="round" stroke-linejoin="round"/>
<path d="M1554 150L1556.61 159.958L1570 211" stroke="#101027" stroke-width="2.20758" stroke-linecap="round" stroke-linejoin="round"/>
<path d="M293 191L309 130" stroke="#101027" stroke-width="2.20758" stroke-linecap="round" stroke-linejoin="round"/>
<path d="M185 172L192.077 160.048L217 118" stroke="#101027" stroke-width="2.20758" stroke-linecap="round" stroke-linejoin="round"/>
<path d="M1046 102L1003 144.927L1004.08 217" stroke="#101027" stroke-width="2.20758" stroke-linecap="round" stroke-linejoin="round"/>
<path d="M1920 369.702L1902.93 363.605L1861.23 348.727H1791.59H1721.96H1652.32H1582.67H1513.03H1443.38H1373.74L1356.25 335.123L1340.16 322.619L1325.33 311.099L1311.64 300.428L1298.93 290.548L1287.08 281.343L1276.07 272.775L1265.75 264.748L1256.11 257.242L1247.05 250.198L1238.52 243.58L1230.5 237.328L1222.92 108.542L1178.71 85L1134.51 104.412L1099.91 93.7993L1090.3 90.8469L1046.08 102.599L1025.52 131.852L1003.07 145.398L987.059 160.488L984.436 162.978L981.698 165.544L978.863 168.226L975.912 171.005L972.845 173.9L969.663 176.91L966.326 180.036L962.854 183.316L959.229 186.732L958.341 187.581L957.589 188.276L957.126 188.777L955.718 190.302L952.266 194.026L948.64 197.943L944.841 202.034L940.848 206.337L936.663 210.853L932.266 215.6L927.617 220.597L922.738 225.865L917.569 231.442L912.092 237.328L910.645 243.58L909.121 250.198L908.331 253.595L905.746 255.486L895.949 257.242L854.308 264.748H802.871H751.452H700.014H648.576H597.138L584.853 272.775H531.698L516.693 281.343H461.668L443.577 290.548H386.546L364.964 300.428L341.685 311.099L316.516 322.619L289.205 335.123L259.484 348.727L227.025 363.605L191.402 379.93L152.134 397.895L108.642 417.828L60.2134 440H0" stroke="#101027" stroke-width="2.20758" stroke-linecap="round" stroke-linejoin="round"/>
<path d="M1293 124L1301.75 183.106L1311 231" stroke="#101027" stroke-width="2.20758" stroke-linecap="round" stroke-linejoin="round"/>
<path d="M1920 348H1861.23L1823.06 334.358H1756.37H1689.7H1623H1556.31H1489.62H1422.94H1356.25H1289.55L1276.19 321.819H1212.21L1148.24 320.755L1084.25 321.819L1020.27 320L956.297 321.819H892.323H828.348H764.355H700.381H636.406H572.432H508.458H444.464H380.49H316.516H252.541H188.567H124.573H60.5991H0" stroke="#101027" stroke-width="2.20758" stroke-linecap="round" stroke-linejoin="round"/>
<path d="M912 237H866.526H821.053H775.56H730.086H684.612H639.119L629.554 243.173H582.711L571.121 249.708H522.851H474.581H426.311H378.041H329.771H281.501H233.231L210.205 256.662H160.411L134.242 264.074H82.8284L53.1683 272H0" stroke="#101027" stroke-width="2.20758" stroke-linecap="round" stroke-linejoin="round"/>
<path d="M187 160L217 118" stroke="#101027" stroke-width="2.20758" stroke-linecap="round" stroke-linejoin="round"/>
<path d="M1566 117L1579 166" stroke="#101027" stroke-width="2.20758" stroke-linecap="round" stroke-linejoin="round"/>
<path d="M1808 363H1757.55H1684.67H1611.79H1538.91H1466.03H1393.15H1320.27L1304.36 348.405L1289.81 335.06H1223.11L1156.4 334L1089.71 335.06H1023H956.297H889.59H822.883H756.195H689.488H622.78H556.073H489.385H422.678H355.971H289.264H222.576H155.869H89.1615H22.4544H0" stroke="#101027" stroke-width="2.20758" stroke-linecap="round" stroke-linejoin="round"/>
<path d="M1447 86L1406 114" stroke="#101027" stroke-width="2.20758" stroke-linecap="round" stroke-linejoin="round"/>
<path d="M1447 86L1488 111.25L1529 120" stroke="#101027" stroke-width="2.20758" stroke-linecap="round" stroke-linejoin="round"/>
<path d="M1920 379H1872.54H1851" stroke="#101027" stroke-width="2.20758" stroke-linecap="round" stroke-linejoin="round"/>
<path d="M1173 38L1178.96 84.9102L1185.24 178.519L1191.93 242.97L1199.01 249.567L1206.55 256.587L1214.57 264.069L1223.13 272.07L1232.29 280.61H1287.29H1342.32L1356.13 289.784L1370.99 299.631H1430.12H1489.28H1548.43H1607.58H1666.71H1725.87L1755.73 310.267H1817.2L1852.02 321.75H1915.97L1920 323" stroke="#101027" stroke-width="2.20758" stroke-linecap="round" stroke-linejoin="round"/>
<path d="M1897 194L1876.05 143.837L1856 101" stroke="#101027" stroke-width="2.20758" stroke-linecap="round" stroke-linejoin="round"/>
<path d="M1554 99.1992L1565.13 110.35L1568.5 113.733L1587.02 132.305L1620.01 141.609L1634.13 170.851L1648.87 186H1683.31H1717.77H1752.22H1786.66L1821.1 156.643L1855.54 100.776L1868.5 84.7035L1872.33 79.9549L1890 58" stroke="#101027" stroke-width="2.20758" stroke-linecap="round" stroke-linejoin="round"/>
<path d="M1340 417H1293.44L1276.46 397H1196.17H1115.85H1035.55H955.236H874.919H794.622H714.305H633.989H553.691H473.375H393.077H312.761H232.463H152.146H71.8298H0" stroke="#101027" stroke-width="2.20758" stroke-linecap="round" stroke-linejoin="round"/>
<path d="M1094 180.912L1139.48 176L1184.96 178.224L1230.46 236.762H1275.94H1321.42H1366.92L1379.02 243.028H1425.85L1440.12 249.661L1455.3 256.72L1471.46 264.243H1522.88H1574.32H1625.76L1648.23 272.288H1701.41L1727.31 280.874H1782.34L1812.12 290.099H1869.14L1903.3 300H1920" stroke="#101027" stroke-width="2.20758" stroke-linecap="round" stroke-linejoin="round"/>
<path d="M985 163H959.257H929.885H900.495H871.123L869.406 165.555H839.475L837.121 168.225H806.591L803.542 170.992H772.415L768.613 173.873H736.868L732.237 176.87H699.836L694.355 179.982H661.279L654.833 183.248H621.043L613.575 186.648L605.778 190.202H570.483H535.167L525.403 193.91H489.277L478.2 197.809H441.245L428.74 201.882L415.617 206.166L401.839 210.661L387.346 215.387L372.062 220.362L355.968 225.607L338.966 231.159L320.981 237.018L301.915 243.242L281.69 249.831L260.173 256.843L237.267 264.316L212.797 272.307H159.593L131.553 280.837H76.4966L44.4429 290H0" stroke="#101027" stroke-width="2.20758" stroke-linecap="round" stroke-linejoin="round"/>
<path d="M1920 257H1903.54L1874.61 249.902H1826.31L1800.53 243.232H1753.66L1730.71 236.931H1685.21L1664.85 231H1620.62H1576.39H1532.17H1487.94H1443.69H1399.46H1355.23H1311" stroke="#101027" stroke-width="2.20758" stroke-linecap="round" stroke-linejoin="round"/>
<path d="M1090 91L1129.61 71.0221L1172.81 37.8161L1216 12" stroke="#101027" stroke-width="2.20758" stroke-linecap="round" stroke-linejoin="round"/>
<path d="M1920 249L1894.28 242.971H1847.48L1821.84 236.628H1776.38L1753.48 230.657H1709.3L1688.86 225H1645.87H1602.91H1559.94H1516.93H1473.96H1430.99H1388" stroke="#101027" stroke-width="2.20758" stroke-linecap="round" stroke-linejoin="round"/>
<path d="M1335 148.967L1376.82 154.169L1418.66 144.517L1460.48 135L1502.29 148.813L1544.11 219.921L1560.05 225.181L1576.85 230.748L1594.62 236.624L1613.49 242.866H1660.28H1707.09L1729.97 249.474H1778.2L1804.04 256.506H1853.8L1882.96 264H1920" stroke="#101027" stroke-width="2.20758" stroke-linecap="round" stroke-linejoin="round"/>
<path d="M1594 167L1598.72 170.089L1614.6 171.041L1620.9 173.858L1649.07 186.447L1664.45 190.042L1680.56 193.791L1697.41 197.735L1715.09 201.854L1733.63 206.186L1753.11 210.732L1773.6 215.512L1795.16 220.543L1817.92 225.847L1841.97 231.462L1867.38 237.387H1912.78L1920 239" stroke="#101027" stroke-width="2.20758" stroke-linecap="round" stroke-linejoin="round"/>
<path d="M1920 237H1912.77L1886.05 231.02H1841.87H1797.67L1774.82 225.353H1731.84H1688.87L1669.51 220H1627.68H1585.85H1544" stroke="#101027" stroke-width="2.20758" stroke-linecap="round" stroke-linejoin="round"/>
<path d="M953 566L953.07 560.584L953.574 524.057L954.009 492.214L954.374 464.207L954.722 439.381L955.017 417.234L955.296 397.322L955.539 379.377L955.765 363.07L955.974 348.209L956.148 334.62L956.322 322.13L956.478 310.622L956.617 299.963L956.756 287.434L956.878 257.635L957 216" stroke="#101027" stroke-width="2.20758" stroke-linecap="round" stroke-linejoin="round"/>
<path d="M956 190H923.28H887.975H852.689H817.403H782.098H746.792H711.506H676.201L669.68 193.717L662.832 197.628L655.674 201.711L648.15 206.006L640.24 210.514L631.925 215.252H591.141L569.012 206.719L550.356 199.535L548.234 199.978L545.996 200.112L520.974 201.576L520.743 201.711L509.572 207.99L497.572 220.241L484.897 225.499L471.527 231.066L457.386 236.941L442.396 243.181L426.479 249.788L409.56 256.819L391.541 264.311L372.287 272.324L351.702 280.876L329.631 290.064H272.583L246.693 299.926L218.796 310.578L188.623 322.077L155.883 334.559L120.25 348.138L81.3178 362.989L38.6042 379.284L0 394" stroke="#101027" stroke-width="2.20758" stroke-linecap="round" stroke-linejoin="round"/>
<path d="M1570 211L1610.71 215.061H1651.42L1669.76 220H1711.55H1753.34H1795.13H1836.94H1878.73H1920" stroke="#101027" stroke-width="2.20758" stroke-linecap="round" stroke-linejoin="round"/>
<path d="M932 215H916.883H876.123H835.362H794.601H753.841H713.08H672.319H631.559L622.805 220.056L613.589 225.385H570.591H527.613H484.616H441.638H398.641H355.663H312.685L294.483 231.026H250.29L229.756 236.98H184.291L161.172 243.305H114.357H67.5231L40.1437 250H0" stroke="#101027" stroke-width="2.20758" stroke-linecap="round" stroke-linejoin="round"/>
<path d="M1594 210H1633.73H1673.46H1713.17H1752.9H1792.61H1832.33H1872.06H1911.79H1920" stroke="#101027" stroke-width="2.20758" stroke-linecap="round" stroke-linejoin="round"/>
<path d="M256 198L219 184L182 196.875" stroke="#101027" stroke-width="2.20758" stroke-linecap="round" stroke-linejoin="round"/>
<path d="M1335 149L1325 112" stroke="#101027" stroke-width="2.20758" stroke-linecap="round" stroke-linejoin="round"/>
<path d="M272 111L308.816 129.509L318 133" stroke="#101027" stroke-width="2.20758" stroke-linecap="round" stroke-linejoin="round"/>
<path d="M1130 71L1100 94" stroke="#101027" stroke-width="2.20758" stroke-linecap="round" stroke-linejoin="round"/>
<path d="M501 206L480.948 210.433H441.209H401.49H361.752H322.033H282.295H242.575H202.837H163.099L142.449 215.093H101.689H60.9283L37.0004 220H0" stroke="#101027" stroke-width="2.20758" stroke-linecap="round" stroke-linejoin="round"/>
<path d="M1290 121.366L1324.83 111.781L1365.61 105L1406.38 113.99L1418.24 144.877L1430.74 225.304L1443.93 230.855L1457.92 236.714H1503.39H1548.87L1566.39 242.937H1613.24L1633.24 249.526H1681.51H1729.81L1754.13 256.537H1803.95L1831.51 264.009H1882.93L1914.1 272H1920" stroke="#101027" stroke-width="2.20758" stroke-linecap="round" stroke-linejoin="round"/>
<path d="M896 257H857.714H807.912H758.111H708.309H658.489H608.687L597.173 264.465H545.751L531.729 272.448H478.552H425.375H372.199H319.041L296.59 280.969H241.562L215.484 290.123H158.469L128.303 299.948H69.1278L34.2939 310.56L0 321" stroke="#101027" stroke-width="2.20758" stroke-linecap="round" stroke-linejoin="round"/>
<path d="M1071 265L1075.16 300.152L1079.63 310.804L1084.47 322.303L1089.73 334.785L1095.44 348.364L1101.69 363.215L1108.54 379.51L1116.08 397.442L1124.44 417.339L1133.77 439.471L1144.2 464.28L1155.98 492.267L1169.35 524.087L1184.72 560.588L1187 566" stroke="#101027" stroke-width="2.20758" stroke-linecap="round" stroke-linejoin="round"/>
<path d="M0 198H34.6088H71.5312H108.473L128.004 193.978L146.668 190.154L156.405 186.488L165.717 182.981L171 181" stroke="#101027" stroke-width="2.20758" stroke-linecap="round" stroke-linejoin="round"/>
<path d="M1016 275L1018.15 309.515L1020.5 320.365L1023.04 334.665L1025.79 348.251L1028.81 363.109L1032.13 379.413L1035.77 397.355L1039.8 417.262L1044.3 439.405L1049.34 464.227L1055.02 492.229L1061.47 524.065L1068.9 560.585L1070 566" stroke="#101027" stroke-width="2.20758" stroke-linecap="round" stroke-linejoin="round"/>
<path d="M1904 26L1920 57" stroke="#101027" stroke-width="2.20758" stroke-linecap="round" stroke-linejoin="round"/>
<path d="M1282 112L1259 86" stroke="#101027" stroke-width="2.20758" stroke-linecap="round" stroke-linejoin="round"/>
<path d="M987 232L957.484 216.255L957 216" stroke="#101027" stroke-width="2.20758" stroke-linecap="round" stroke-linejoin="round"/>
<path d="M1130 71L1134.76 104.422L1139.78 176.666L1145.1 243.509L1150.75 250.124L1156.74 257.163L1163.14 264.666L1169.97 272.688L1177.28 281.251H1232.28L1242.12 290.45L1252.68 300.325L1264.08 310.989H1325.52H1386.99H1448.46H1509.9H1571.37H1632.84H1694.28H1755.73L1788.04 322.503H1852.02L1889.77 335H1920" stroke="#101027" stroke-width="2.20758" stroke-linecap="round" stroke-linejoin="round"/>
<path d="M1474 225L1460.32 134.869L1447.33 85.8653L1435 55" stroke="#101027" stroke-width="2.20758" stroke-linecap="round" stroke-linejoin="round"/>
<path d="M1620 141.601L1653.02 138L1686.05 156.181L1690.44 162.473L1692.25 165.048L1701.59 178.408L1717.84 186.307L1734.77 189.889L1752.5 193.626L1771.07 197.557L1790.53 201.661L1810.93 205.979L1832.38 210.51L1854.96 215.273L1878.71 220.287L1903.76 225.573L1920 229" stroke="#101027" stroke-width="2.20758" stroke-linecap="round" stroke-linejoin="round"/>
<path d="M0 180H32.6818H65.6911H98.7003H131.71H164.719L173 178" stroke="#101027" stroke-width="2.20758" stroke-linecap="round" stroke-linejoin="round"/>
<path d="M987 160H958.689H929.857H901.044H872.231L870.573 162.483H841.22L838.944 165.043H809.032L806.081 167.718H775.591L771.927 170.49H740.838L736.402 173.377H704.678L699.393 176.379H667.032L660.861 179.498H627.786L620.65 182.77H586.881H553.112L544.183 186.176L534.829 189.737H499.556L488.968 193.452H452.884L440.966 197.359H404.015L390.63 201.439H352.811H314.973L277.154 194.78L260.317 205.732L242.633 210.235L224.022 214.97L204.428 219.955L183.753 225.21L161.941 230.772L138.837 236.643L114.383 242.879L88.4053 249.481L60.8076 256.506L31.397 263.993L0 272" stroke="#101027" stroke-width="2.20758" stroke-linecap="round" stroke-linejoin="round"/>
<path d="M918 231H913.89H869.664H825.438H781.212H736.986H692.76H648.533L639.484 236.831H593.984L583.043 243.026H536.193H489.323H442.473H395.603H348.753H301.884H255.014L233.364 249.584H185.066L160.503 256.563H110.662L82.8757 264H31.4136H0" stroke="#101027" stroke-width="2.20758" stroke-linecap="round" stroke-linejoin="round"/>
<path d="M1890 58L1870 82" stroke="#101027" stroke-width="2.20758" stroke-linecap="round" stroke-linejoin="round"/>
<path d="M1890 58L1920 64" stroke="#101027" stroke-width="2.20758" stroke-linecap="round" stroke-linejoin="round"/>
<path d="M1653 138L1667.84 164.395L1683.33 186.566L1699.51 190.167L1716.43 193.924H1752.48H1788.55L1807.96 197.876H1844.87L1866.11 202.002H1903.89L1920 205" stroke="#101027" stroke-width="2.20758" stroke-linecap="round" stroke-linejoin="round"/>
<path d="M1770 174H1751.68L1736.06 171H1706" stroke="#101027" stroke-width="2.20758" stroke-linecap="round" stroke-linejoin="round"/>
<path d="M1566 117L1551 142" stroke="#101027" stroke-width="2.20758" stroke-linecap="round" stroke-linejoin="round"/>
<path d="M1571 166L1564 165" stroke="#101027" stroke-width="2.20758" stroke-linecap="round" stroke-linejoin="round"/>
<path d="M0 231H29.312H73.5115L97.7518 225.449H140.756H183.74H226.744L246.26 220.206H288.106H329.953L346.306 215.231H387.073H427.821H468.588L495.2 210.506L509.354 207.99L539.631 201.729L544.162 200.787L548 200" stroke="#101027" stroke-width="2.20758" stroke-linecap="round" stroke-linejoin="round"/>
<path d="M253 86L265.728 92.2931L288.272 103.446L310.025 125.23L317.951 133.169L329.156 137.642L345.027 143.974L356.714 160.084L362.345 167.848L364.91 171.392L366.453 173.522L376.828 179.699L394.127 190H429.418L441.066 186.418L452.232 182.991H486L495.989 179.699H529.044L537.934 176.562H570.313L578.182 173.541H609.925H641.648L647.954 170.637H679.042L684.519 167.848H715.008L719.694 165.157H749.605L753.558 162.582L757.357 160.084H786.169H815" stroke="#101027" stroke-width="2.20758" stroke-linecap="round" stroke-linejoin="round"/>
<path d="M958 188V216" stroke="#101027" stroke-width="2.20758" stroke-linecap="round" stroke-linejoin="round"/>
<path d="M1920 417H1892" stroke="#101027" stroke-width="2.20758" stroke-linecap="round" stroke-linejoin="round"/>
<path d="M1708 172H1711" stroke="#101027" stroke-width="2.20758" stroke-linecap="round" stroke-linejoin="round"/>
<path d="M391 174H419.004H450.753H482.501H514.25H545.998L554.201 170.978L562.094 168.078L569.679 165.278L576.975 162.599L584 160" stroke="#101027" stroke-width="2.20758" stroke-linecap="round" stroke-linejoin="round"/>
<path d="M180 197L145.548 197.977H108.587L88.0699 201.887H50.2209L27.774 206H0" stroke="#101027" stroke-width="2.20758" stroke-linecap="round" stroke-linejoin="round"/>
<path d="M1895 421L1920 432" stroke="#101027" stroke-width="2.20758" stroke-linecap="round" stroke-linejoin="round"/>
<path d="M1695 163H1722.39H1751.73H1781.09H1783" stroke="#101027" stroke-width="2.20758" stroke-linecap="round" stroke-linejoin="round"/>
<path d="M0 186H26.5928H61.1672H95.7416H130.335H152" stroke="#101027" stroke-width="2.20758" stroke-linecap="round" stroke-linejoin="round"/>
<path d="M1587 133L1600.41 155.413L1614.41 171.281L1629.04 190H1664.29H1699.55H1734.78H1770.04H1805.28L1840.53 173.75L1875.77 144.025L1911.02 144.656L1920 135.603" stroke="#101027" stroke-width="2.20758" stroke-linecap="round" stroke-linejoin="round"/>
<path d="M1719 180H1745" stroke="#101027" stroke-width="2.20758" stroke-linecap="round" stroke-linejoin="round"/>
<path d="M1591 206H1617.14H1655.89H1694.63H1733.38H1772.13H1810.86H1849.61H1888.38H1920" stroke="#101027" stroke-width="2.20758" stroke-linecap="round" stroke-linejoin="round"/>
<path d="M976 171H958.679H927.567H896.473H865.361L863.432 173.885H831.702L829.041 176.886H796.655L793.222 180.002H760.142L755.841 183.272H722.066L716.82 186.677L711.361 190.235L705.633 193.947L699.653 197.852L693.365 201.93L686.768 206.219L679.863 210.72H640.109H600.356L584.462 206.219L575.84 203.777L560.621 199.468L550.167 199.93L539.327 220.434L527.812 225.685L515.64 231.244L502.775 237.111L489.138 243.343L474.672 249.941L459.279 256.962L442.884 264.444L425.389 272.446L406.66 280.986L386.581 290.161H329.564L305.82 300.01L280.224 310.647L252.564 322.13L222.551 334.595L189.876 348.155L154.173 362.986L114.998 379.258L71.8305 397.166L24.0335 417.036L0 427" stroke="#101027" stroke-width="2.20758" stroke-linecap="round" stroke-linejoin="round"/>
<path d="M0 171H25.6039L43.7488 168.094H74.3188L91.2077 165.288H121.179L136.87 162.604L152 160" stroke="#101027" stroke-width="2.20758" stroke-linecap="round" stroke-linejoin="round"/>
<path d="M1920 225H1903.75H1860.77L1836.87 219.871L1814.19 215.005L1792.64 210.383L1772.17 205.987L1752.69 201.797L1734.11 197.814L1716.37 194H1680.31H1644.23H1608.17H1583" stroke="#101027" stroke-width="2.20758" stroke-linecap="round" stroke-linejoin="round"/>
<path d="M584 206H608.822H647.65H686.458H725.286H764.113H802.94H841.768H880.576H919.403H941" stroke="#101027" stroke-width="2.20758" stroke-linecap="round" stroke-linejoin="round"/>
<path d="M1554 99L1541 120" stroke="#101027" stroke-width="2.20758" stroke-linecap="round" stroke-linejoin="round"/>
<path d="M985 288L956.292 300.111H897.141H838.009H778.857H719.706H660.574H601.423H542.272H483.12H423.988H364.837H305.686H246.534H187.402H128.251L95.7449 310.742L60.578 322.219L22.442 334.676L0 342" stroke="#101027" stroke-width="2.20758" stroke-linecap="round" stroke-linejoin="round"/>
<path d="M1856 101L1837 114" stroke="#101027" stroke-width="2.20758" stroke-linecap="round" stroke-linejoin="round"/>
<path d="M1897 194H1920" stroke="#101027" stroke-width="2.20758" stroke-linecap="round" stroke-linejoin="round"/>
<path d="M1395 94L1406 114" stroke="#101027" stroke-width="2.20758" stroke-linecap="round" stroke-linejoin="round"/>
<path d="M913 250H909.143H860.847H812.571H764.295H716.019H667.743H619.467L608.667 257.056H558.867L545.732 264.576H494.293H442.854H391.434H339.995H288.556H237.137H185.698L159.505 272.618H106.331L76.4546 281.201H21.4281L0 287" stroke="#101027" stroke-width="2.20758" stroke-linecap="round" stroke-linejoin="round"/>
<path d="M1803 145L1821.41 156.728L1840.66 173.624L1860.78 194.025H1896.77L1918.69 198H1920" stroke="#101027" stroke-width="2.20758" stroke-linecap="round" stroke-linejoin="round"/>
<path d="M1738 428L1716.8 417.058L1678.21 397.124L1643.39 379.158L1611.79 362.833L1582.99 347.954L1556.62 334.35L1532.41 321.845L1510.07 310.325L1489.42 299.653L1470.27 289.773L1452.46 280.568L1435.85 272H1382.66H1329.47H1276.31H1223.12H1169.93H1116.74H1095" stroke="#101027" stroke-width="2.20758" stroke-linecap="round" stroke-linejoin="round"/>
<path d="M1554 99.2205L1566.71 116.694L1578.46 130.123L1600.44 155.2L1603 156.419L1634.17 171.338L1667.9 164.546L1701.63 178.691L1713.61 179.871L1719.56 180.181L1735.36 182L1745.22 179.871L1750.13 178.827L1763.46 175.943L1763.67 175.885L1769.09 174.724L1770.24 173.718L1772.53 171.725L1773.59 170.816L1776.81 168.029L1777.71 167.236L1779.89 165.34L1782.57 163.018L1782.88 162.766L1785.73 160.27L1802.81 145.448L1836.54 114.197L1854.13 97.4016L1863.01 88.907L1870.27 81.9797L1888.67 51.4453L1904 26" stroke="#101027" stroke-width="2.20758" stroke-linecap="round" stroke-linejoin="round"/>
<path d="M922 243H910.583H863.758H816.913H770.088H723.244H676.419H629.574L619.411 249.66H571.139L558.816 256.748H509.021H459.206H409.411H359.616H309.821H260.007H210.212L185.681 264.301H134.246L106.321 272.379H53.1701L21.4262 281H0" stroke="#101027" stroke-width="2.20758" stroke-linecap="round" stroke-linejoin="round"/>
<path d="M1769 175L1786.71 186.691L1805.22 190.219L1824.57 193.9H1860.65L1881.76 197.771H1918.69L1920 198" stroke="#101027" stroke-width="2.20758" stroke-linecap="round" stroke-linejoin="round"/>
<path d="M928 220H916.365H874.496H832.607H790.737H748.868H706.998H665.128H623.24H581.37H539.5H497.631H455.761H413.892H372.003H330.133L312.903 225.319H269.876L250.465 230.951H206.242L184.419 236.894H138.903H93.4059L67.5702 243.207H20.7226L0 248" stroke="#101027" stroke-width="2.20758" stroke-linecap="round" stroke-linejoin="round"/>
<path d="M409 180H429.767L440.721 176.802L451.23 173.722L461.314 170.76L471.031 167.917L480.362 165.173L489.345 162.547L498 160" stroke="#101027" stroke-width="2.20758" stroke-linecap="round" stroke-linejoin="round"/>
<path d="M872 160H843.176H814.371L811.633 162.487L808.818 165.05H778.894L775.385 167.729H744.903L740.642 170.505H709.542L704.491 173.396H672.774L666.855 176.403H634.483L627.619 179.526H594.573H561.526L552.965 182.803H519.205L509.526 186.215L499.423 189.781H464.14L452.764 193.501H416.671L403.908 197.414H366.985H330.044L293.122 190.571L277.08 194.831L258.224 198.146L256.084 197.973L239.252 201.5L221.495 205.798L202.831 210.309L183.203 215.051L162.535 220.043L140.728 225.305L117.688 230.876L93.337 236.755H47.8735L20.7073 243H0" stroke="#101027" stroke-width="2.20758" stroke-linecap="round" stroke-linejoin="round"/>
<path d="M0 219L20.1964 214.978H61.0141L83.7592 210.243H123.554H163.329L183.004 205.74H221.813H260.623H299.413L315.343 201.448L330.519 197.368L345 144" stroke="#101027" stroke-width="2.20758" stroke-linecap="round" stroke-linejoin="round"/>
<path d="M1904 26L1920 39" stroke="#101027" stroke-width="2.20758" stroke-linecap="round" stroke-linejoin="round"/>
<path d="M0 215H20.159L43.9028 210.351H83.6042L105.209 205.929H143.927H182.665L201.359 201.715H239.153L255.978 198.257L273.419 194.553L293 191" stroke="#101027" stroke-width="2.20758" stroke-linecap="round" stroke-linejoin="round"/>
<path d="M183 165H180.992L165.872 167.684L150.135 170.465L133.76 173.362L116.728 176.375L98.9633 179.503L80.4451 182.786L61.1159 186.205L40.9177 189.777L19.7927 193.505L0 197" stroke="#101027" stroke-width="2.20758" stroke-linecap="round" stroke-linejoin="round"/>
<path d="M0 194H19.736H55.7615H91.8062H127.832L155 191" stroke="#101027" stroke-width="2.20758" stroke-linecap="round" stroke-linejoin="round"/>
<path d="M179 171H150.148H118.999H87.8682H56.7184L38.4689 173.903L19.4662 176.923L0 180" stroke="#101027" stroke-width="2.20758" stroke-linecap="round" stroke-linejoin="round"/>
<path d="M0 177H19.3953H51.7016H84.008H116.314H148.621H174" stroke="#101027" stroke-width="2.20758" stroke-linecap="round" stroke-linejoin="round"/>
<path d="M1772 172L1766.87 171.016H1735.9L1720.91 168H1702" stroke="#101027" stroke-width="2.20758" stroke-linecap="round" stroke-linejoin="round"/>
<path d="M0 153L19.2032 163H48.6069H78.03H107.434H136.837H166.26H185" stroke="#101027" stroke-width="2.20758" stroke-linecap="round" stroke-linejoin="round"/>
<path d="M364 160H381.99H410.847H439.685H468.543H497.381H526.238H555.076H583.914H612.771H641.609H670.467H699.305H728.162H757" stroke="#101027" stroke-width="2.20758" stroke-linecap="round" stroke-linejoin="round"/>
<path d="M400 183H417.891L429.284 179.695H462.328L472.584 176.545H504.953L514.129 173.512L522.959 170.596L531.422 167.796L539.577 165.094L547.443 162.508L555 160" stroke="#101027" stroke-width="2.20758" stroke-linecap="round" stroke-linejoin="round"/>
<path d="M373 165H390.581H420.446H450.331H480.197H510.063H539.929H569.814H599.679H629.545H659.411H689.296H719.162L723.667 162.462L728 160" stroke="#101027" stroke-width="2.20758" stroke-linecap="round" stroke-linejoin="round"/>
<path d="M836 566L837.253 560.582L845.733 524.048L853.115 492.198L859.61 464.184L865.372 439.352L870.518 417.2L875.124 397.284L879.307 379.334L883.084 363.024L886.534 348.159L889.676 334.567L892.586 322.074L895.246 310.564L897.713 299.902L900.006 290.031L902.145 280.835L904.131 272.275L906 255" stroke="#101027" stroke-width="2.20758" stroke-linecap="round" stroke-linejoin="round"/>
<path d="M1823 360L1830.58 363H1903.03H1920" stroke="#101027" stroke-width="2.20758" stroke-linecap="round" stroke-linejoin="round"/>
<path d="M1691 160H1708.08H1737.07H1766.07H1786" stroke="#101027" stroke-width="2.20758" stroke-linecap="round" stroke-linejoin="round"/>
<path d="M1920 305L1903.3 300.155H1844.14L1812.14 290.272H1755.12L1727.35 281.065H1672.33L1648.28 272.494H1595.12H1541.97H1488.8H1435.63L1420.11 264.464L1405.59 256.955L1391.94 249.91L1379.11 243.289H1332.27H1285.45H1238.6H1191.78H1144.94H1098.1L1051.28 242.787L1035 238" stroke="#101027" stroke-width="2.20758" stroke-linecap="round" stroke-linejoin="round"/>
<path d="M1388 225L1376.41 154.034L1365.43 104.419L1355 91" stroke="#101027" stroke-width="2.20758" stroke-linecap="round" stroke-linejoin="round"/>
<path d="M253 86L268.511 92L303 87.2157" stroke="#101027" stroke-width="2.20758" stroke-linecap="round" stroke-linejoin="round"/>
<path d="M1750 179L1740.46 173.557L1736 171" stroke="#101027" stroke-width="2.20758" stroke-linecap="round" stroke-linejoin="round"/>
<path d="M383 171H398.837H429.953H461.049H492.165H523.28H554.376H585.492L592.764 168.094L599.767 165.288L606.499 162.604L613 160" stroke="#101027" stroke-width="2.20758" stroke-linecap="round" stroke-linejoin="round"/>
<path d="M1046 102L1048.48 117.394L1051.12 242.969L1053.92 250.115L1056.89 257.182L1060.05 264.715L1061 267" stroke="#101027" stroke-width="2.20758" stroke-linecap="round" stroke-linejoin="round"/>
<path d="M1474 225L1488.41 230.593L1503.62 236.495L1519.74 242.765L1536.87 249.403L1555.09 256.466L1574.46 263.994L1595.17 272.045L1617.32 280.637L1641.08 289.868L1666.62 299.776L1694.16 310.478L1723.94 322.031L1756.24 334.571L1791.41 348.214L1814 357" stroke="#101027" stroke-width="2.20758" stroke-linecap="round" stroke-linejoin="round"/>
<path d="M1766 160L1781.37 162.725L1783 163" stroke="#101027" stroke-width="2.20758" stroke-linecap="round" stroke-linejoin="round"/>
<path d="M1778 167L1766.82 165.094L1751.63 162.508L1737 160" stroke="#101027" stroke-width="2.20758" stroke-linecap="round" stroke-linejoin="round"/>
<path d="M973 174H958.687H926.955H895.223H863.491L861.485 177.003H829.098L826.339 180.122H793.276L789.669 183.395H755.893L751.398 186.803L746.691 190.364L741.792 194.08L736.641 197.988L731.24 202.07L725.588 206.363L719.647 210.868L713.397 215.604L706.819 220.59L699.875 225.846L692.545 231.41L684.79 237.282L676.573 243.52L667.834 250.123L658.556 257.15L648.68 264.64L638.128 272.649H584.946L571.809 281.197H516.775L500.668 290.38L483.365 300.237L464.712 310.883L444.535 322.377L422.66 334.853L398.837 348.425L372.815 363.269L344.247 379.556L312.785 397.48L277.928 417.368L239.117 439.489H149.67L100.79 464.285H5.96057L0 467" stroke="#101027" stroke-width="2.20758" stroke-linecap="round" stroke-linejoin="round"/>
<path d="M1708 160L1722.1 162.604L1736.74 165.288L1751.93 168.094L1767.72 171H1774" stroke="#101027" stroke-width="2.20758" stroke-linecap="round" stroke-linejoin="round"/>
<path d="M699 160L694.13 162.524L689.087 165.125L683.831 167.845H653.398L647.335 170.662H616.285H585.255L577.69 173.596H546.025L537.517 176.648H505.197L495.649 179.817H462.637L451.973 183.143H418.267L406.39 186.605L393.974 190.224L381 194" stroke="#101027" stroke-width="2.20758" stroke-linecap="round" stroke-linejoin="round"/>
<path d="M0 170L13.1841 167.988H43.7024L61.1525 165.219H91.1111L107.345 162.57L123 160" stroke="#101027" stroke-width="2.20758" stroke-linecap="round" stroke-linejoin="round"/>
<path d="M1920 212L1911.78 210.479L1888.36 206.137L1866.05 202H1828.2H1790.37H1752.54H1714.7H1676.87H1639.02H1601.19H1588" stroke="#101027" stroke-width="2.20758" stroke-linecap="round" stroke-linejoin="round"/>
<path d="M0 168H13.1642L31.1663 165.227H61.0605L77.8483 162.574L94 160" stroke="#101027" stroke-width="2.20758" stroke-linecap="round" stroke-linejoin="round"/>
<path d="M181 168H165.844H135.301H104.777L87.8453 170.747L70.2183 173.609L51.877 176.586L32.7634 179.677L12.8196 182.92L0 185" stroke="#101027" stroke-width="2.20758" stroke-linecap="round" stroke-linejoin="round"/>
<path d="M0 183H12.8267H46.6515H80.4762H114.301H148.126H163" stroke="#101027" stroke-width="2.20758" stroke-linecap="round" stroke-linejoin="round"/>
<path d="M1771 397H1758.4H1678.08H1597.78H1517.46H1437.14L1414.03 379.187H1337.61L1320.17 363H1247.3H1174.42H1101.55H1028.67H955.8H882.925H810.05H737.176H664.301H591.426H518.552H445.677H372.803H299.928H227.053H154.179H81.304H8.42938H0" stroke="#101027" stroke-width="2.20758" stroke-linecap="round" stroke-linejoin="round"/>
<path d="M177 174H165.674L149.285 176.97L132.18 180.053L114.36 183.289L95.7478 186.659L76.3044 190.18L55.972 193.854L34.6926 197.718L12.3695 201.754L0 204" stroke="#101027" stroke-width="2.20758" stroke-linecap="round" stroke-linejoin="round"/>
<path d="M0 202H12.338H50.1618L71.5221 197.909L91.9184 193.991L111.389 190.267L130.012 186.696L147.825 183.281L164.886 180H172" stroke="#101027" stroke-width="2.20758" stroke-linecap="round" stroke-linejoin="round"/>
<path d="M1920 440H1908" stroke="#101027" stroke-width="2.20758" stroke-linecap="round" stroke-linejoin="round"/>
<path d="M0 228L11.769 225.571H54.7934H97.7984L120.758 220.39H162.644H204.51H246.377L264.899 215.474H305.685H346.472L361.983 210.806L376.743 206.365H415.523H454.303H493.063H501.321L520.421 202.133L521 202" stroke="#101027" stroke-width="2.20758" stroke-linecap="round" stroke-linejoin="round"/>
<path d="M520 202H503.922H466.099H428.295H390.472L376.438 206.153H337.69H298.941L282.247 210.511L264.685 215.092H223.931H183.178H142.425L120.66 219.916H78.827H36.9941L11.7595 225H0" stroke="#101027" stroke-width="2.20758" stroke-linecap="round" stroke-linejoin="round"/>
<path d="M1695 163L1706.35 165H1736.51H1766.65H1780" stroke="#101027" stroke-width="2.20758" stroke-linecap="round" stroke-linejoin="round"/>
<path d="M937 210H918.575H878.81H839.065H799.301H759.556H719.791H680.046L672.753 214.839L665.093 219.933L656.99 225.303L648.462 230.987H604.241L593.919 236.987H548.424H502.91H457.416H411.902H366.407H320.913H275.399L254.986 243.36H208.141L185.046 250.106H136.754L110.65 257.286H60.8331H11.0167L0 260" stroke="#101027" stroke-width="2.20758" stroke-linecap="round" stroke-linejoin="round"/>
<path d="M923 225H915.013H872.011H828.989H785.986H742.965H699.962H656.94H613.938L604.195 230.688H559.958H515.74H471.522H427.304H383.087H338.869H294.651L275.378 236.69H229.887L208.125 243.066H161.264L136.744 249.817H88.4358H40.1665L11.0159 257H0" stroke="#101027" stroke-width="2.20758" stroke-linecap="round" stroke-linejoin="round"/>
<path d="M957 216L953.026 220.221L951.907 221.378L931.342 243.178L920.153 255.032L903.813 272.342H850.626H797.459H744.272H691.085L681.652 280.9H626.613L614.517 290.094L601.495 299.963L587.451 310.622L572.288 322.13L555.813 334.62L537.91 348.209L518.329 363.07L496.839 379.377L473.168 397.322L446.951 417.234L417.763 439.381L385.044 464.207H290.207H195.37L146.292 492.214L90.4815 524.057L26.4914 560.584L17 566" stroke="#101027" stroke-width="2.20758" stroke-linecap="round" stroke-linejoin="round"/>
<path d="M952 194H921.882H885.807H849.712H813.637H777.542H741.466H705.372H669.296H633.201H597.126L588.584 197.908H551.66H514.717L504.016 201.989L492.756 206.282L480.955 210.787L468.519 215.523L455.446 220.509L441.641 225.764L427.064 231.328L411.639 237.2L395.307 243.437L377.973 250.04L359.54 257.067L339.893 264.555L318.934 272.564H265.775L241.48 281.111H186.47L158.416 290.294H101.401L69.1046 300.151H9.9492L0 303" stroke="#101027" stroke-width="2.20758" stroke-linecap="round" stroke-linejoin="round"/>
<path d="M982 165H958.964H929.041H899.099H869.176L867.401 167.685H836.899L834.43 170.466H803.33L800.147 173.363H768.41L764.436 176.376H732.043L727.24 179.504H694.172L688.442 182.788H654.66L647.946 186.206L640.924 189.779H605.618L597.477 193.506H561.361H525.264L515.019 197.427H478.074L466.46 201.521L454.286 205.828L441.476 210.348L428.009 215.099L413.848 220.101L398.877 225.373L383.096 230.955L366.388 236.845L348.697 243.103L329.906 249.727L309.938 256.777L288.639 264.29L265.931 272.324H212.741L186.58 280.899H131.519L101.46 290.112H44.4312L9.95505 300H0" stroke="#101027" stroke-width="2.20758" stroke-linecap="round" stroke-linejoin="round"/>
<path d="M1562 162L1570.93 165.473L1578.78 165.955L1593.38 166.843L1594.97 169.718L1607.91 193.451L1623.09 197.368L1639.02 201.458L1655.75 205.761L1673.3 210.276L1691.76 215.022L1711.21 220.02L1731.71 225.287L1753.37 230.864H1797.59L1821.78 236.748H1867.28L1894.27 243H1920" stroke="#101027" stroke-width="2.20758" stroke-linecap="round" stroke-linejoin="round"/>
<path d="M390 173L399.1 170.638L409.923 167.827L420.326 165.114L430.345 162.518L440 160" stroke="#101027" stroke-width="2.20758" stroke-linecap="round" stroke-linejoin="round"/>
<path d="M1316 110L1325 112" stroke="#101027" stroke-width="2.20758" stroke-linecap="round" stroke-linejoin="round"/>
<path d="M1920 290H1869.16L1837.4 280.875H1782.39L1754.65 272.382H1701.49L1677.29 264.424H1625.87L1604.82 256.982H1555.05H1505.25L1488.55 250H1440.29H1392.03H1343.77H1295.52H1247.26H1199H1150.74H1102.48H1054.22H1045" stroke="#101027" stroke-width="2.20758" stroke-linecap="round" stroke-linejoin="round"/>
<path d="M979 168H958.765H928.269H897.753H867.256L865.404 170.774H834.29L831.744 173.663H800.013L796.695 176.668H764.308L760.18 179.789H727.118L722.102 183.063H688.327L682.347 186.473L676.097 190.036H640.816L633.467 193.754L625.79 197.664L617.727 201.748L609.278 206.044L600.386 210.551L591.05 215.29L581.212 220.279L570.834 225.537L559.878 231.104L548.304 236.979L536.017 243.22L522.977 249.827L509.127 256.858L494.351 264.351L478.592 272.365L461.733 280.917H406.681H351.648H296.615L272.541 290.105H215.502L187.494 299.968L157.267 310.62L124.591 322.12L89.1561 334.602L50.5771 348.182L8.42951 363.034L0 366" stroke="#101027" stroke-width="2.20758" stroke-linecap="round" stroke-linejoin="round"/>
<path d="M1654 566L1647.04 560.576L1600.02 524H1492.22H1384.42H1276.62H1168.82H1061.02H953.244H845.444H737.645H629.845H522.045L489.783 560.576L485 566" stroke="#101027" stroke-width="2.20758" stroke-linecap="round" stroke-linejoin="round"/>
<path d="M329 138L337 136" stroke="#101027" stroke-width="2.20758" stroke-linecap="round" stroke-linejoin="round"/>
<path d="M1698 165H1706.38L1720.95 168H1751.73H1777" stroke="#101027" stroke-width="2.20758" stroke-linecap="round" stroke-linejoin="round"/>
<path d="M400 177H408.194H440.414H472.633L482.42 173.884L491.823 170.887L500.861 168.011L509.554 165.234L517.921 162.577L526 160" stroke="#101027" stroke-width="2.20758" stroke-linecap="round" stroke-linejoin="round"/>
<path d="M0 561H26.761H142.462H258.163H373.864H489.565H605.266L629.598 524.462L650.806 492.609L669.469 464.593L685.992 439.759L700.761 417.604L714.007 397.687L725.98 379.736L736.835 363.424L746.725 348.558L755.787 334.964L764.097 322.47L771.77 310.959L778.866 300.297L785.44 290.424L791.571 281.227L797.278 272.666L802.6 264.645L807.593 257.145L812.278 250.107L816.693 243.494L820.858 237.246L824.772 231.366L828.474 225.793L831.983 220.529L835.318 215.536L838.48 210.792L841.488 206.281L844.341 201.981L847.06 197.893L849.663 193.979L852.15 190.258L854.521 186.691L856.796 183.278L858.975 180H892.022H925.068H958.114H966" stroke="#101027" stroke-width="2.20758" stroke-linecap="round" stroke-linejoin="round"/>
<path d="M0 175L6.6774 173.809H38.3325H69.9877H101.643H133.298H164.953L178 171" stroke="#101027" stroke-width="2.20758" stroke-linecap="round" stroke-linejoin="round"/>
<path d="M0 174H6.71015L25.6223 170.978H56.7946L74.3724 168.078H104.945L121.266 165.278H151.259L166.419 162.599L181 160" stroke="#101027" stroke-width="2.20758" stroke-linecap="round" stroke-linejoin="round"/>
<path d="M1303 566L1299.55 561H1183.89H1068.23H952.577H836.919H721.262H605.604L602 566" stroke="#101027" stroke-width="2.20758" stroke-linecap="round" stroke-linejoin="round"/>
<path d="M1792 378L1757.3 363.355L1722.08 348.478L1689.83 334.875L1660.2 322.372L1632.9 310.853L1607.65 300.183L1584.21 290.303L1562.43 281.1L1542.13 272.533L1523.12 264.506L1505.35 257H1455.57H1405.8H1356.01H1306.23H1256.46H1206.68H1156.89H1107.12H1057.34H1051" stroke="#101027" stroke-width="2.20758" stroke-linecap="round" stroke-linejoin="round"/>
<path d="M1920 274L1914.1 272.493H1860.97L1831.58 264.459H1780.19L1754.27 256.945H1704.51L1681.71 249.896L1660.28 243.271L1640.08 237.013L1621.02 231.122L1603 225.54L1585.95 220.267L1569.76 211.151L1543.84 152.86L1534.36 131.518L1529.02 119.524L1514.7 56.3462L1474.98 43L1435.27 55.0135L1395.57 94.0865L1355.85 91.1121L1316.13 109.461L1282 111.45" stroke="#101027" stroke-width="2.20758" stroke-linecap="round" stroke-linejoin="round"/>
<path d="M0 147.076L7.61845 147L36.5067 160H65.4142H94.3025H123.21H152.098H180.986H187" stroke="#101027" stroke-width="2.20758" stroke-linecap="round" stroke-linejoin="round"/>
<path d="M1879 398.823L1763.24 492.256L1647.47 561H1531.71H1415.94H1300.18L1276.93 524.448L1256.68 492.584L1238.85 464.558L1223.06 439.714L1208.97 417.552L1196.32 397.627L1184.88 379.67L1174.52 363.352L1165.07 348.48L1156.41 333.802L1148.48 321.322L1141.15 310.868L1134.36 300.201L1128.09 290.326L1122.24 281.125H1107.39L1088.08 272.561L1071.04 265L1062 268.703L1030.94 281.472L1016.01 275.165L1013.71 276.129L985.547 288.05L956.977 287.664L899.935 290.326H842.911H785.868H728.845H671.802H614.778H557.735H500.692H443.669L424.224 300.201L403.235 310.868L380.569 322.383L355.973 334.882L329.197 348.48L299.952 363.352L267.853 379.67L232.493 397.627L193.313 417.552L149.677 439.714H60.2258L5.96085 464.558H0" stroke="#101027" stroke-width="2.20758" stroke-linecap="round" stroke-linejoin="round"/>
<path d="M183 165L180.687 165.404H150.788L135.096 168.075L118.787 170.842L101.823 173.724L84.165 176.722L65.7551 179.835L46.5548 183.102L26.5257 186.503L5.57116 190.058L0 191" stroke="#101027" stroke-width="2.20758" stroke-linecap="round" stroke-linejoin="round"/>
<path d="M0 190H5.5684H40.8285H76.0694H111.329H140" stroke="#101027" stroke-width="2.20758" stroke-linecap="round" stroke-linejoin="round"/>
<path d="M1767 401L1758.59 397.085L1719.83 379.132L1684.69 362.817L1652.65 347.949L1623.31 334.354L1596.37 321.858L1571.53 310.345L1548.56 299.681L1527.25 289.808L1507.43 280.609L1488.96 272.047L1471.69 264.025H1420.22H1368.76H1317.29H1265.82H1214.36H1162.89H1111.41H1059.96L1055 262" stroke="#101027" stroke-width="2.20758" stroke-linecap="round" stroke-linejoin="round"/>
<path d="M469 160L459.735 162.535L450.121 165.148L440.116 167.88L429.743 170.71L418.94 173.657L407.691 176.723L403 178" stroke="#101027" stroke-width="2.20758" stroke-linecap="round" stroke-linejoin="round"/>
<path d="M0 516L45.6394 492.789H146.563H247.468H348.391H449.296L480.121 464.732L507.454 439.861L531.836 417.674L553.73 397.727L573.502 379.749L591.442 363.413L607.78 348.525L622.749 334.911L636.502 322.398L649.176 310.87L660.904 300.192L671.764 290.305L681.872 281.095H736.905L744.486 272.521L751.566 264.488L758.182 256.976L764.393 249.928L770.257 243.305L775.755 237.049L780.963 231.159L785.882 225.578L790.531 220.307L794.948 215.306L799.134 210.555L803.127 206.037L806.908 201.731L810.534 197.637L813.987 193.717L817.286 189.99L820.43 186.418L823.439 183H857.215H890.991H924.768H958.544H963" stroke="#101027" stroke-width="2.20758" stroke-linecap="round" stroke-linejoin="round"/>
<path d="M0 211L4.19036 210.214H43.9892L66.6017 205.727H105.416L126.001 201.451H163.868H201.755L219.598 184.022L236.63 137.373L272.76 111.047L288.208 104.087L303 88" stroke="#101027" stroke-width="2.20758" stroke-linecap="round" stroke-linejoin="round"/>
<path d="M0 210H4.1922L27.7999 205.492H66.6308L88.152 201.195H126.056L145.684 197.111L164.423 189.982L178.159 179.231L180.941 177.054L182.969 175.474L196.685 164.762L200.163 162.2L200.569 161.718L236.733 136.806L253 86" stroke="#101027" stroke-width="2.20758" stroke-linecap="round" stroke-linejoin="round"/>
<path d="M1764 176L1752.26 173.742H1750.45L1736.17 171.242L1711.12 171.827L1707 171" stroke="#101027" stroke-width="2.20758" stroke-linecap="round" stroke-linejoin="round"/>
<path d="M1920 398L1918.79 397.514L1872.39 379.432L1830.31 363H1827" stroke="#101027" stroke-width="2.20758" stroke-linecap="round" stroke-linejoin="round"/>
<path d="M368 163H371.129H400.524H429.919H459.333H488.728H518.123H547.537H576.932H606.327H635.742H665.137H694.532H723.946H753.341H782.736L786 160" stroke="#101027" stroke-width="2.20758" stroke-linecap="round" stroke-linejoin="round"/>
<path d="M1315 440H1312.01L1293.11 417H1208.52H1123.9H1039.3H954.688H870.091H785.475H700.878H616.262H531.665H447.049H362.453H277.837H193.24H108.624H24.0272H0" stroke="#101027" stroke-width="2.20758" stroke-linecap="round" stroke-linejoin="round"/>
<path d="M719 566L721.426 560.581L737.81 524.039L752.096 492.182L764.649 464.163L775.778 439.325L785.712 417.168L794.646 397.248L802.693 379.295L810.01 362.981L816.671 348.113L822.755 334.518L828.377 322.022L833.537 310.51L838.312 299.846L842.74 289.972L846.86 280.774L850.692 272.212L854.292 264.19L857.642 256.689L860.799 249.65L863.784 243.036L866.575 236.788L869.213 230.906L871.716 225.333L874.084 220.069L876.318 215.074L878.435 210.331L880.457 205.818L882.382 201.518L884.231 197.43L885.983 193.515L887.638 189.793L889.256 186.226L890.777 182.813L892.24 179.534L893.645 176.41L894.993 173.402L896.302 170.51L897.534 167.733L898.728 165.052L899.883 162.488L901 160" stroke="#101027" stroke-width="2.20758" stroke-linecap="round" stroke-linejoin="round"/>
<path d="M912 237L913.383 231.102L914.688 225.514L915.935 220.235L917.104 215.227L918.214 210.47L919.266 205.945L920.279 201.633L921.234 197.533L922.149 193.608L923.026 189.876L923.864 186.298L924.662 182.876L925.422 179.588L926.162 176.456L926.864 173.439L927.545 170.539L928.208 167.754L928.831 165.066L929.435 162.494L930 160" stroke="#101027" stroke-width="2.20758" stroke-linecap="round" stroke-linejoin="round"/>
<path d="M959 160L958.905 162.481L958.809 165.038L958.714 167.712L958.619 170.481L958.476 173.365L958.381 176.365L958.238 179.481L958.143 182.75L958 186.154V187" stroke="#101027" stroke-width="2.20758" stroke-linecap="round" stroke-linejoin="round"/>
<path d="M970 176.137H958.829H926.435H894.041H861.648L859.564 179.26H826.495L823.601 182.536H789.818L786.056 185.947H751.54H717.004H682.488H647.972H613.437H578.921H544.405H509.869H475.353H440.818H406.302L400.302 182.536L389.053 176.137L383.786 173.131L378.712 170.24L375.452 168.39L371.766 166.289L368.101 163.032L367.175 162.223L364.377 159.737L364.242 159.621L345.045 142.603L342.305 140.175L338.003 135.55L315.005 104.039L302.734 87.1949L252.668 86L217.38 118.108L200.305 161.741L199.9 162.223L182.671 195.622L163.725 201.23L144.084 205.528L123.459 210.038L101.754 214.779L78.8911 219.77L54.7935 225.032L29.3261 230.602L2.39239 236.48L0 237" stroke="#101027" stroke-width="2.20758" stroke-linecap="round" stroke-linejoin="round"/>
<path d="M369 167H372" stroke="#101027" stroke-width="2.20758" stroke-linecap="round" stroke-linejoin="round"/>
<path d="M844 160L841.819 162.494H812.426H783.053L779.656 165.066H749.723L745.631 167.754H715.1L710.236 170.539H679.106L673.432 173.439H641.685L635.104 176.456H602.7H570.296L562.075 179.588H528.996L519.713 182.876H485.92L475.498 186.298L464.594 189.876H429.295L417.079 193.608H380.97L367.344 197.533L353.063 201.633L338.067 205.945L322.338 210.47L305.779 215.227L288.333 220.235L269.94 225.514H226.922L206.291 231.102H162.057H117.803H73.5692L47.9203 237H2.39312H0" stroke="#101027" stroke-width="2.20758" stroke-linecap="round" stroke-linejoin="round"/>
<path d="M369 163L371.266 162.481L382 160" stroke="#101027" stroke-width="2.20758" stroke-linecap="round" stroke-linejoin="round"/>
<path d="M377 168H379.164H409.705H440.247H470.808H501.35H531.891H562.452H592.994H623.536H654.097L659.931 165.227L665.572 162.574L671 160" stroke="#101027" stroke-width="2.20758" stroke-linecap="round" stroke-linejoin="round"/>
<path d="M1314 441.515L1312.71 440H1223.22H1133.76H1044.28H954.792H865.308H775.824H686.34H596.876H507.392H417.909H328.425L290.312 464.705L247.297 492.575L198.397 524.262L142.317 560.61L134 566" stroke="#101027" stroke-width="2.20758" stroke-linecap="round" stroke-linejoin="round"/>
<path d="M378 168L379.52 167.638L390.406 164.99L400.893 162.457L411 160" stroke="#101027" stroke-width="2.20758" stroke-linecap="round" stroke-linejoin="round"/>
<path d="M949 198H921.542H884.539H847.516H810.513H773.49H736.487H699.483H662.461H625.457H588.434L579.488 202H578" stroke="#101027" stroke-width="2.20758" stroke-linecap="round" stroke-linejoin="round"/>
<path d="M0 165L1.26811 164.834H31.0686L48.3417 162.38L65 160" stroke="#101027" stroke-width="2.20758" stroke-linecap="round" stroke-linejoin="round"/>
<path d="M0 165H1.25847L18.9534 162.462L36 160" stroke="#101027" stroke-width="2.20758" stroke-linecap="round" stroke-linejoin="round"/>
<path d="M1877 397H1918.79H1920" stroke="#101027" stroke-width="2.20758" stroke-linecap="round" stroke-linejoin="round"/>
<path d="M1920 220L1895.65 215.066L1872.01 210.287L1849.55 205.742L1828.17 201.41L1807.79 197.291H1770.84H1733.89H1696.92H1659.97H1622.99H1586.04L1585 197" stroke="#101027" stroke-width="2.20758" stroke-linecap="round" stroke-linejoin="round"/>
<path d="M0 492H45.6217L100.749 463.977H195.56L239.022 439.136H328.434L362.428 416.975L392.952 397.052L420.506 379.097L445.515 362.78L468.307 347.91L489.17 334.313L508.337 321.816L525.999 310.302L542.331 299.636L557.487 289.762L571.582 280.562H626.594L637.874 271.999H691.035L699.847 263.975L708.1 256.473L715.832 249.433L723.121 242.818L729.985 236.569L736.464 230.687L742.577 225.113L748.381 219.848L753.876 214.853L759.101 210.108L764.057 205.595L768.781 201.294L773.274 197.205L777.574 193.29L781.681 189.568L785.595 186H820.11H854.606H889.121H923.617H958.113H959" stroke="#101027" stroke-width="2.20758" stroke-linecap="round" stroke-linejoin="round"/>
<path d="M1585 198H1585.85L1600.91 201.939L1616.7 206.082L1633.29 210.43L1650.74 215H1691.56H1732.37H1773.19H1814H1854.82H1895.63H1920" stroke="#101027" stroke-width="2.20758" stroke-linecap="round" stroke-linejoin="round"/>
<path d="M945 202H920.473H882.67H844.887H807.085H769.301H731.499H693.716H655.932H618.13H580.347H580" stroke="#101027" stroke-width="2.20758" stroke-linecap="round" stroke-linejoin="round"/>
<path d="M1288 464L1256.82 492.064H1155.88H1054.92H953.984H853.027H752.089H651.132H550.194H449.237L414.176 523.972L373.962 560.573L368 566" stroke="#101027" stroke-width="2.20758" stroke-linecap="round" stroke-linejoin="round"/>
<path d="M1651 492L1600 524" stroke="#101027" stroke-width="2.20758" stroke-linecap="round" stroke-linejoin="round"/>
<path d="M1514 57L1521.53 74.7381L1540.85 120.133L1550.2 142.108L1553.77 150.486L1561.72 162.542L1563.75 165.585L1582.45 193.935L1584.85 197.556L1585.04 197.845L1587.42 201.447L1587.74 201.928L1590.56 206.223L1593.54 210.73L1609.96 215.468L1627.26 220.456L1645.49 225.714L1664.75 231.28H1709L1730.64 237.154H1776.18L1800.48 243.394H1847.38L1874.59 250H1920" stroke="#101027" stroke-width="2.20758" stroke-linecap="round" stroke-linejoin="round"/>
<path d="M1686 156L1691.36 159.838L1694.86 162.364L1695.56 162.854L1698.51 164.969L1702.28 167.691L1706.23 170.511L1706.62 170.785L1707.83 171.647L1719.49 179.989L1735.29 181.83L1752.27 186.471L1770 190.094L1788.54 193.873H1824.59L1844.86 197.848H1881.77L1903.89 202H1920" stroke="#101027" stroke-width="2.20758" stroke-linecap="round" stroke-linejoin="round"/>
<path d="M0 311.152H34.2969H95.7921H157.268H218.763H280.239H341.735H403.21H464.706H526.201H587.677H649.172H710.667H772.143H833.639H895.115H956.61L1018.09 310L1079.58 311.152H1141.08H1202.55L1212.39 322.612L1223.04 335.051L1234.65 348.585L1247.32 363.385L1261.23 379.625L1276.55 397.497H1356.87H1437.17L1462.79 417.326L1491.32 439.383L1523.28 464.108L1559.33 492H1650.65L1655.57 488.89L1694.9 464.108L1703.52 458.656L1708.17 455.738L1725.82 439.383L1737.9 428.211L1749.64 417.326L1766.85 401.394L1771.04 397.497L1790.36 379.625L1792.18 377.955L1807.9 363.385L1814.48 357.3L1816 355.898" stroke="#101027" stroke-width="2.20758" stroke-linecap="round" stroke-linejoin="round"/>
<path d="M1600 524L1559.05 492.077L1467 464" stroke="#101027" stroke-width="2.20758" stroke-linecap="round" stroke-linejoin="round"/>
<path d="M0 524H90.7498H198.569H306.389H414.209H522.028L550.169 492.147L574.897 464.131L596.846 439.296L616.404 417.142L633.976 397.224L649.85 379.273L664.258 362.961L677.373 348.094L689.39 334.501L700.423 322.006L710.607 310.495L720 299.833L728.737 289.961L736.838 280.763H791.886H846.914H901.943L903.062 280.301L922.195 272.202L956.971 257.49L966.056 249.643L986.984 231.595L1004.21 216.729L1012 210" stroke="#101027" stroke-width="2.20758" stroke-linecap="round" stroke-linejoin="round"/>
<path d="M1750 417H1717.04H1632.37H1547.72L1517.78 397.087L1490.74 379.14L1466.22 362.831L1443.85 347.969L1423.4 334.378L1404.59 321.887L1387.26 310.378L1371.24 299.718H1312.04H1252.84H1193.64H1134.44H1075.26L1031 281" stroke="#101027" stroke-width="2.20758" stroke-linecap="round" stroke-linejoin="round"/>
<path d="M1726 440H1670.34L1632.16 417.78L1597.89 397.804L1566.93 379.8L1538.86 363.439L1513.26 348.53L1489.82 334.896L1468.32 322.365L1448.47 310.82L1430.11 300.126L1413.1 290.224H1356.02H1298.95H1241.87H1184.78H1127.71L1107 281" stroke="#101027" stroke-width="2.20758" stroke-linecap="round" stroke-linejoin="round"/>
<path d="M908 253L912.688 249.587L921.85 242.935L938.637 230.736L952 221" stroke="#101027" stroke-width="2.20758" stroke-linecap="round" stroke-linejoin="round"/>
<path d="M1026 132L1049 118" stroke="#101027" stroke-width="2.20758" stroke-linecap="round" stroke-linejoin="round"/>
<path d="M1357 402L1339.59 417.629L1314.92 439.717L1313.23 441.236L1287.29 464.478H1238.31H1143.51H1048.72H953.9H859.102H764.305H669.508H574.691H479.894H385.097L348.208 492.411L306.247 524.169L258.135 560.598L251 566" stroke="#101027" stroke-width="2.20758" stroke-linecap="round" stroke-linejoin="round"/>
<path d="M642 160L636.051 162.493L629.85 165.063L623.418 167.749L616.735 170.531L609.8 173.43L602.557 176.444L595.004 179.575L587.143 182.86L578.934 186.28L570.357 189.855L561.375 193.585L551.988 197.507L548.82 198.821L546 200" stroke="#101027" stroke-width="2.20758" stroke-linecap="round" stroke-linejoin="round"/>
<path d="M1598 170L1628.57 189.831L1643.91 193.558L1659.96 197.478L1676.79 201.572L1694.42 205.878L1712.97 210.396L1732.48 215.147L1753.01 220.148L1774.68 225.419H1817.69H1860.7L1886.02 231H1920" stroke="#101027" stroke-width="2.20758" stroke-linecap="round" stroke-linejoin="round"/>
<path d="M1750 174L1763 176" stroke="#101027" stroke-width="2.20758" stroke-linecap="round" stroke-linejoin="round"/>
<path d="M1272 115L1276.55 125.249L1302.27 183.369L1345.25 225.615H1388.2L1400.19 231.183L1412.87 237.058H1458.32L1473.1 243.3H1519.89H1566.7L1585.26 249.908H1633.49L1654.76 256.939H1704.52L1728.82 264.433H1780.19L1807.85 272.447H1860.98L1892.44 281H1920" stroke="#101027" stroke-width="2.20758" stroke-linecap="round" stroke-linejoin="round"/>
<path d="M1368 408L1359.3 399.751L1356.68 397.243L1337.45 379H1261.05H1184.64H1108.24H1031.85H955.434H879.039H802.624H726.229H649.814H573.419H497.004H420.609H344.194H267.799H191.403H114.988H38.5931H0" stroke="#101027" stroke-width="2.20758" stroke-linecap="round" stroke-linejoin="round"/>
<path d="M381 194L366 174" stroke="#101027" stroke-width="2.20758" stroke-linecap="round" stroke-linejoin="round"/>
</g>
<defs>
<clipPath id="clip0_812_6472">
<rect width="1920" height="560" fill="white"/>
</clipPath>
</defs>
</svg>