<svg width="55" height="32" fill="none" xmlns="http://www.w3.org/2000/svg">
  <path d="M48.868 5.49H29.11v17.957h19.758V5.489Z" fill="#fff"/>
  <path fill-rule="evenodd" clip-rule="evenodd" d="M54.99 16c0 8.825-7.16 15.979-15.99 15.979S23.01 24.825 23.01 16 30.17.021 39 .021 54.99 7.175 54.99 16Zm-20.52 6.359h-3.104c-.652 0-.974 0-1.17-.126a.788.788 0 0 1-.358-.616c-.012-.232.15-.514.471-1.08l7.662-13.496c.326-.573.491-.86.7-.966a.791.791 0 0 1 .714 0c.209.106.374.393.7.966L41.66 9.79l.008.014c.352.615.53.926.608 1.254a2.33 2.33 0 0 1 0 1.091c-.078.33-.255.644-.612 1.268l-4.025 7.11-.01.018c-.355.62-.534.934-.783 1.17-.271.26-.597.448-.955.555-.326.09-.691.09-1.422.09Zm7.836 0h4.446c.656 0 .986 0 1.182-.13a.785.785 0 0 0 .358-.62c.011-.224-.147-.496-.455-1.028l-.032-.055-2.228-3.808-.025-.043c-.313-.529-.47-.796-.674-.899a.782.782 0 0 0-.71 0c-.205.106-.37.385-.696.946l-2.22 3.808-.007.013c-.325.56-.487.84-.475 1.07a.795.795 0 0 0 .357.62c.193.126.523.126 1.178.126Z" fill="#E84142"/>
  <path d="M16 32c8.837 0 16-7.163 16-16S24.837 0 16 0 0 7.163 0 16s7.163 16 16 16Z" fill="#F3BA2F"/>
  <path d="M11.727 14.244 16 9.972l4.274 4.274 2.486-2.486L16 5l-6.759 6.758 2.486 2.486ZM5 16l2.486-2.487L9.972 16l-2.486 2.485L5 16Zm6.727 1.755L16 22.027l4.274-4.274 2.488 2.485L16 27l-6.759-6.759-.003-.004 2.49-2.482ZM22.027 16l2.486-2.486L27 16l-2.486 2.486L22.027 16Z" fill="#fff"/>
  <path d="M18.52 16 16 13.474l-1.865 1.864-.215.215-.441.441-.003.004.003.003L16 18.522 18.522 16h-.002" fill="#fff"/>
</svg>