<svg width="15" height="14" viewBox="0 0 15 14" fill="none" xmlns="http://www.w3.org/2000/svg">
<path d="M0.9375 13C0.9375 13.5273 1.34766 13.9375 1.875 13.9375H6.5625V9.25H0.9375V13ZM8.4375 13.9375H13.125C13.623 13.9375 14.0625 13.5273 14.0625 13V9.25H8.4375V13.9375ZM14.0625 4.5625H12.8027C13.0078 4.21094 13.125 3.83008 13.125 3.39062C13.125 1.98438 11.9531 0.8125 10.5469 0.8125C9.31641 0.8125 8.52539 1.45703 7.5293 2.83398C6.50391 1.45703 5.71289 0.8125 4.51172 0.8125C3.07617 0.8125 1.93359 1.98438 1.93359 3.39062C1.93359 3.83008 2.02148 4.21094 2.22656 4.5625H0.9375C0.410156 4.5625 0 5.00195 0 5.5V7.84375C0 8.10742 0.205078 8.3125 0.46875 8.3125H14.5312C14.7656 8.3125 15 8.10742 15 7.84375V5.5C15 5.00195 14.5605 4.5625 14.0625 4.5625ZM4.48242 4.5625C3.83789 4.5625 3.31055 4.06445 3.31055 3.39062C3.31055 2.74609 3.83789 2.21875 4.48242 2.21875C5.06836 2.21875 5.50781 2.33594 7.03125 4.5625H4.48242ZM10.5469 4.5625H7.99805C9.52148 2.33594 9.93164 2.21875 10.5469 2.21875C11.1914 2.21875 11.7188 2.74609 11.7188 3.39062C11.7188 4.06445 11.1914 4.5625 10.5469 4.5625Z" fill="white"/>
</svg>