<svg width="83" height="83" viewBox="0 0 83 83" fill="none" xmlns="http://www.w3.org/2000/svg">
<path d="M41.3986 82.7972C64.2624 82.7972 82.7972 64.2624 82.7972 41.3986C82.7972 18.5348 64.2624 0 41.3986 0C18.5348 0 0 18.5348 0 41.3986C0 64.2624 18.5348 82.7972 41.3986 82.7972Z" fill="#AEF33C"/>
<path d="M82.7969 41.3977C82.7969 64.2629 64.2611 82.7987 41.4011 82.7987C38.6218 82.7987 35.9054 82.5254 33.2786 81.9999C52.2508 78.2223 66.5467 61.478 66.5467 41.3977C66.5467 21.3174 52.2508 4.57836 33.2786 0.800708C35.9054 0.275239 38.6218 0.00195312 41.4011 0.00195312C64.2611 0.00195312 82.7969 18.5326 82.7969 41.3977V41.3977Z" fill="black" fill-opacity="0.05"/>
<path d="M49.6261 57.2901C48.8067 57.2901 47.9836 57.0093 47.3114 56.436C45.6783 55.042 43.3495 54.2385 40.9214 54.231C40.9106 54.231 40.8993 54.231 40.8881 54.231C38.4726 54.231 36.1533 55.02 34.5192 56.3976C33.0131 57.6684 30.7617 57.4767 29.4918 55.9701C28.2215 54.4635 28.4128 52.2131 29.9193 50.9428C32.8758 48.449 36.7978 47.0864 40.9434 47.0953C45.0961 47.1079 49.0026 48.4978 51.9445 51.0084C53.4431 52.2876 53.6212 54.5399 52.342 56.0385C51.6356 56.8654 50.6339 57.2901 49.6261 57.2901V57.2901Z" fill="#82B732"/>
<path d="M21.727 40.8399C21.7204 40.8399 21.7138 40.8399 21.7068 40.8399C19.7362 40.8291 18.1265 39.2232 18.1373 37.2525C18.148 35.2819 19.7324 33.7163 21.7035 33.7041H21.7462C23.7168 33.7149 25.3054 35.3208 25.2946 37.2914C25.2838 39.255 23.6882 40.8399 21.727 40.8399Z" fill="#82B732"/>
<path d="M61.1088 40.8399C61.1022 40.8399 61.0956 40.8399 61.0886 40.8399C59.118 40.8291 57.5083 39.2227 57.5191 37.2521C57.5299 35.2885 59.1044 33.7036 61.0652 33.7036H61.0853H61.1275C63.0981 33.7144 64.6867 35.3203 64.6759 37.291C64.6652 39.255 63.0695 40.8399 61.1088 40.8399V40.8399Z" fill="#82B732"/>
</svg>