<svg width="55" height="32" fill="none" xmlns="http://www.w3.org/2000/svg">
  <path d="M48.868 5.49H29.11v17.957h19.758V5.489Z" fill="#fff"/>
  <path fill-rule="evenodd" clip-rule="evenodd" d="M54.99 16c0 8.825-7.16 15.979-15.99 15.979S23.01 24.825 23.01 16 30.17.021 39 .021s15.99 7.154 15.99 15.98ZM34.47 22.36h-3.104c-.652 0-.974 0-1.17-.126a.788.788 0 0 1-.358-.616c-.012-.232.15-.514.471-1.08l7.662-13.496c.326-.573.491-.86.7-.965a.791.791 0 0 1 .714 0c.209.106.374.392.7.965L41.66 9.79l.008.014c.352.615.53.927.608 1.254a2.33 2.33 0 0 1 0 1.091c-.078.33-.255.644-.612 1.268l-4.025 7.11-.01.018c-.355.62-.534.934-.783 1.171-.271.26-.597.448-.955.554-.326.09-.691.09-1.422.09Zm7.836 0h4.446c.656 0 .986 0 1.182-.13a.785.785 0 0 0 .358-.62c.011-.224-.147-.495-.455-1.028l-.032-.055-2.228-3.808-.025-.043c-.313-.529-.47-.796-.674-.899a.783.783 0 0 0-.71 0c-.205.106-.37.385-.696.946l-2.22 3.808-.007.013c-.325.56-.487.84-.475 1.07a.795.795 0 0 0 .357.62c.193.126.523.126 1.178.126Z" fill="#E84142"/>
  <circle cx="16" cy="16" r="16" fill="#6869E7"/>
  <g clip-path="url(#a)">
    <path fill-rule="evenodd" clip-rule="evenodd" d="m6.4 9.306 9.6 16.55 9.6-16.55H6.4Zm16.397 0L16 21.078l-5.453-9.402h5.319l-1.306 2.236 1.42 2.408 4.071-7.014h2.746Z" fill="#fff"/>
  </g>
  <defs>
    <clipPath id="a">
      <path fill="#fff" transform="translate(6.4 7.04)" d="M0 0h19.2v19.2H0z"/>
    </clipPath>
  </defs>
</svg>