<svg width="240" height="241" viewBox="0 0 240 241" fill="none" xmlns="http://www.w3.org/2000/svg">
<g clip-path="url(#clip0_1836_13138)">
<path d="M234.339 176.107V204.245C234.339 207.59 231.632 210.296 228.288 210.296H11.7122C8.36816 210.296 5.66113 207.589 5.66113 204.245V176.107C5.66113 175.465 5.76098 174.827 5.96582 174.218L36.6066 81.1437C37.4199 78.6602 39.7369 76.9858 42.3535 76.9858H197.647C200.264 76.9858 202.58 78.6602 203.394 81.1437L234.035 174.218C234.239 174.827 234.339 175.465 234.339 176.107Z" fill="#151533"/>
<path d="M234.339 176.107V204.245C234.339 207.59 231.632 210.296 228.288 210.296H191.905C191.781 167.401 192.443 96.6044 192.638 76.9858H197.647C200.264 76.9858 202.58 78.6602 203.394 81.1437L234.035 174.218C234.239 174.827 234.339 175.465 234.339 176.107V176.107Z" fill="#19193A"/>
<path d="M5.65967 176.107V204.245C5.65967 207.59 8.3667 210.296 11.7108 210.296H48.0937C48.2175 167.401 47.5561 96.6044 47.3611 76.9858H42.352C39.7354 76.9858 37.4189 78.6602 36.6051 81.1437L5.96436 174.218C5.75998 174.827 5.65967 175.465 5.65967 176.107V176.107Z" fill="#19193A"/>
<path d="M211.349 174.216L192.69 117.541C191.873 115.059 189.556 113.382 186.944 113.382H53.0559C50.4436 113.382 48.1261 115.059 47.3091 117.541L28.6509 174.216C28.4498 174.827 28.3477 175.465 28.3477 176.108V204.247C28.3477 207.588 31.0566 210.297 34.3978 210.297H205.603C208.944 210.297 211.653 207.588 211.653 204.247V176.108C211.652 175.465 211.55 174.826 211.349 174.216Z" fill="#23234D"/>
<path d="M120 163.537C144.427 163.537 164.229 157.97 164.229 151.102C164.229 144.234 144.427 138.667 120 138.667C95.5727 138.667 75.7705 144.234 75.7705 151.102C75.7705 157.97 95.5727 163.537 120 163.537Z" fill="black" fill-opacity="0.2"/>
<path d="M211.652 176.109V204.248C211.652 207.588 208.942 210.298 205.602 210.298H184.554C187.894 210.298 190.604 207.588 190.604 204.248V176.109C190.604 175.468 190.501 174.827 190.302 174.215L171.643 117.538C170.827 115.058 168.509 113.382 165.896 113.382H186.944C189.558 113.382 191.875 115.058 192.691 117.538L211.35 174.215C211.55 174.827 211.652 175.468 211.652 176.109V176.109Z" fill="black" fill-opacity="0.16"/>
<path d="M234.34 181.948V234.45C234.34 237.791 231.631 240.5 228.29 240.5H11.7098C8.36857 240.5 5.65967 237.791 5.65967 234.45V181.948C5.65967 178.606 8.36857 175.897 11.7098 175.897H56.3803C58.6922 175.897 60.802 177.215 61.8169 179.293L70.5947 197.265C71.609 199.343 73.7189 200.661 76.0312 200.661H163.969C166.281 200.661 168.39 199.343 169.405 197.265L178.183 179.293C179.197 177.215 181.307 175.897 183.62 175.897H228.29C231.631 175.897 234.34 178.606 234.34 181.948Z" fill="#292A61"/>
<path d="M234.34 181.948V234.45C234.34 237.79 231.63 240.5 228.29 240.5H205.252C208.592 240.5 211.303 237.79 211.303 234.45V181.948C211.303 178.608 208.592 175.897 205.252 175.897H228.29C231.629 175.897 234.34 178.608 234.34 181.948Z" fill="black" fill-opacity="0.11"/>
<path d="M36.9191 227.605H23.8626C21.892 227.605 20.2949 226.007 20.2949 224.037C20.2949 222.067 21.8924 220.469 23.8626 220.469H36.9191C38.8898 220.469 40.4868 222.067 40.4868 224.037C40.4868 226.007 38.8898 227.605 36.9191 227.605Z" fill="#8F90FF"/>
<path d="M36.9191 216.459H23.8626C21.892 216.459 20.2949 214.862 20.2949 212.891C20.2949 210.92 21.8924 209.323 23.8626 209.323H36.9191C38.8898 209.323 40.4868 210.921 40.4868 212.891C40.4873 214.862 38.8898 216.459 36.9191 216.459Z" fill="#8F90FF"/>
<path d="M49.6477 38.3268C49.6477 31.2998 55.344 25.6035 62.371 25.6035C69.398 25.6035 75.0938 31.2998 75.0938 38.3268C75.0938 45.3538 69.3976 51.0501 62.3705 51.0501C55.3435 51.0501 49.6477 45.3538 49.6477 38.3268" fill="#313165"/>
<path d="M55.9177 49.2909C60.9123 48.1396 64.6332 43.6687 64.6332 38.3254C64.6332 32.9877 60.9179 28.5107 55.9234 27.3595C57.8129 26.2429 60.0165 25.6035 62.3715 25.6035C69.3952 25.6035 75.0929 31.3016 75.0929 38.3254C75.0929 45.3548 69.3948 51.0529 62.3715 51.0529C60.0165 51.0529 57.8073 50.4131 55.9177 49.2909" fill="black" fill-opacity="0.15"/>
<path d="M103.651 1.5452C102.258 0.151602 99.9989 0.151602 98.6053 1.5452L95.7211 4.42941L92.8369 1.5452C91.4438 0.15207 89.1844 0.15207 87.7913 1.5452C86.3977 2.93832 86.3977 5.1977 87.7913 6.59082L90.6755 9.47504L87.7913 12.3593C86.3977 13.7524 86.3977 16.0118 87.7913 17.4049C88.4879 18.1019 89.401 18.4497 90.3141 18.4497C91.2268 18.4497 92.1404 18.1014 92.8369 17.4049L95.7211 14.5207L98.6053 17.4049C99.3019 18.1014 100.215 18.4497 101.128 18.4497C102.041 18.4497 102.954 18.1014 103.651 17.4049C105.045 16.0118 105.045 13.7524 103.651 12.3593L100.767 9.47504L103.651 6.59082C105.045 5.19723 105.045 2.93832 103.651 1.5452V1.5452Z" fill="#6869E7"/>
<path d="M181.463 44.4864L184.347 41.6022C185.741 40.2091 185.741 37.9497 184.347 36.5566C182.954 35.1634 180.695 35.1634 179.302 36.5566L176.417 39.4408L173.533 36.5566C172.14 35.1634 169.881 35.1634 168.488 36.5566C167.094 37.9497 167.094 40.2091 168.488 41.6022L171.372 44.4864L168.488 47.3706C167.094 48.7637 167.094 51.0231 168.488 52.4162C169.184 53.1128 170.097 53.4611 171.01 53.4611C171.924 53.4611 172.837 53.1128 173.533 52.4162L176.417 49.532L179.302 52.4162C179.998 53.1128 180.911 53.4611 181.824 53.4611C182.738 53.4611 183.651 53.1128 184.347 52.4162C185.741 51.0231 185.741 48.7637 184.347 47.3706L181.463 44.4864Z" fill="#6869E7"/>
<path d="M119.815 51.8767C119.811 51.8767 119.808 51.8767 119.804 51.8767C117.833 51.8711 116.241 50.2684 116.247 48.2982L116.278 37.6736C116.284 35.7067 117.88 34.1162 119.846 34.1162H119.856C121.827 34.1218 123.419 35.7245 123.414 37.6946L123.382 48.3193C123.377 50.2862 121.78 51.8767 119.815 51.8767V51.8767Z" fill="#24244A"/>
<path d="M103.973 56.4052C102.76 56.4052 101.578 55.7865 100.909 54.6704L95.3887 45.4538C94.3762 43.763 94.9256 41.5721 96.6159 40.5596C98.3067 39.5466 100.497 40.0965 101.51 41.7868L107.031 51.0033C108.043 52.6941 107.494 54.8851 105.803 55.8976C105.229 56.2412 104.597 56.4052 103.973 56.4052V56.4052Z" fill="#24244A"/>
<path d="M135.628 56.5504C134.998 56.5504 134.359 56.383 133.78 56.0319C132.096 55.0096 131.559 52.8149 132.582 51.1307L138.157 41.9446C139.179 40.2599 141.374 39.7236 143.058 40.746C144.743 41.7683 145.279 43.963 144.257 45.6472L138.682 54.8333C138.01 55.9391 136.834 56.5504 135.628 56.5504Z" fill="#24244A"/>
<path d="M152.568 28.8009C158.149 28.8009 162.674 24.2762 162.674 18.6946C162.674 13.1131 158.149 8.58838 152.568 8.58838C146.986 8.58838 142.461 13.1131 142.461 18.6946C142.461 24.2762 146.986 28.8009 152.568 28.8009Z" fill="#313165"/>
<path d="M162.673 18.6937C162.673 24.2775 158.147 28.8032 152.568 28.8032C150.698 28.8032 148.943 28.2951 147.442 27.404C151.409 26.4895 154.365 22.9382 154.365 18.6937C154.365 14.4539 151.414 10.8979 147.447 9.9834C148.948 9.09652 150.698 8.58887 152.568 8.58887C158.147 8.5884 162.673 13.1146 162.673 18.6937Z" fill="black" fill-opacity="0.15"/>
</g>
<defs>
<clipPath id="clip0_1836_13138">
<rect width="240" height="240" fill="white" transform="translate(0 0.5)"/>
</clipPath>
</defs>
</svg>