<svg width="14" height="16" viewBox="0 0 14 16" fill="none" xmlns="http://www.w3.org/2000/svg">
<path d="M12.1562 7.4375H11.4531V5.32812C11.4531 2.89648 9.43164 0.875 7 0.875C4.53906 0.875 2.54688 2.89648 2.54688 5.32812V7.4375H1.84375C1.05273 7.4375 0.4375 8.08203 0.4375 8.84375V14.4688C0.4375 15.2598 1.05273 15.875 1.84375 15.875H12.1562C12.918 15.875 13.5625 15.2598 13.5625 14.4688V8.84375C13.5625 8.08203 12.918 7.4375 12.1562 7.4375ZM9.10938 7.4375H4.89062V5.32812C4.89062 4.18555 5.82812 3.21875 7 3.21875C8.14258 3.21875 9.10938 4.18555 9.10938 5.32812V7.4375Z" fill="white"/>
</svg>