<svg width="55" height="32" fill="none" xmlns="http://www.w3.org/2000/svg">
  <path d="M39 31.633c8.634 0 15.633-6.999 15.633-15.633 0-8.633-7-15.632-15.633-15.632S23.369 7.367 23.369 16c0 8.634 6.999 15.633 15.633 15.633Z" fill="#fff"/>
  <path d="M39 32A15.999 15.999 0 0 1 27.687 4.686a16 16 0 0 1 22.627 22.628A15.898 15.898 0 0 1 39 32ZM39 .366C30.38.367 23.367 7.38 23.367 16c0 8.62 7.014 15.634 15.633 15.634 8.62 0 15.634-7.014 15.634-15.634C54.634 7.38 47.62.367 39 .367V.366Z" fill="url(#a)"/>
  <path d="M32.797 17.694c.756.5 1.442.957 2.126 1.435a67.71 67.71 0 0 1 1.17-.93c.395-.305.78-.6 1.171-.897l.055-.042.063-1.484-4.324-.437-.261 2.355Zm1.267-.466a3.693 3.693 0 0 1 1.155-.604c.21-.068.43-.178.66-.13a.99.99 0 0 1 .63.365.047.047 0 0 1-.007.063l-.006.003a1.864 1.864 0 0 1-.608.266c-.184.055-.378-.022-.575-.018a7.096 7.096 0 0 0-1.231.116.035.035 0 0 1-.03-.027.038.038 0 0 1 .011-.034ZM50.135 22.642c-.247-.61-.588-1.094-1.015-1.435-.447-.369-.997-.605-1.575-.856l-.044-.019c-.273-.118-.59-.257-.901-.422a45.681 45.681 0 0 1-.637-.37l-.21-.126-.834-.5-.415-.259-.073-.046c-.117-.076-.229-.147-.359-.25l-.048-.037a.1.1 0 0 1-.031-.045l-.023-.069a9.211 9.211 0 0 0-.536-1.312l-.03-.056c-.026.005-.052.012-.079.016-.085.016-.17.037-.252.063-.047.014-.094.029-.142.04a2.049 2.049 0 0 0-.258.063l-.135.039c-.12.042-.238.091-.352.148-.227.117-.43.276-.598.469a3.206 3.206 0 0 0-.22.278c-.094.134-.198.26-.311.378a.895.895 0 0 1-.583.25h-.119l-.204-.004a1.3 1.3 0 0 0-.659.267c-.205.16-.387.348-.54.559l-.118.136c-.033.307-.003.541.093.71.116.213.363.367.607.509l.071.04c.119.069.241.14.365.226.15.104.289.227.41.364.15.162.296.322.442.482.294.325.573.63.87.936.437.459.9.893 1.386 1.3.409.333.954.746 1.543.966.276.097.564.15.856.157.1.005.2.008.3.008.195 0 .405-.01.622-.029a8.542 8.542 0 0 0 1.828-.365c.697-.228 1.216-.499 1.588-.826.224-.202.372-.424.428-.64a.937.937 0 0 0 .017-.357 1.727 1.727 0 0 0-.125-.381Zm-2.99 1.562a3.367 3.367 0 0 0-.59-.077c-.097-.006-.192.028-.28 0a.901.901 0 0 1-.292-.14.023.023 0 0 1-.003-.032.478.478 0 0 1 .315-.166c.113-.019.218.038.319.075.2.072.387.178.55.315a.019.019 0 0 1 .006.018.017.017 0 0 1-.01.01.018.018 0 0 1-.015-.003Zm2.484-1.518c-.04.1-.1.193-.173.273-.06.071-.158.093-.238.149a3.516 3.516 0 0 0-.465.382.017.017 0 0 1-.014 0 .017.017 0 0 1-.005-.004.018.018 0 0 1-.005-.009v-.01a1.8 1.8 0 0 1 .302-.557c.066-.084.126-.189.232-.232a.481.481 0 0 1 .36-.019.022.022 0 0 1 .009.015l-.001.01-.002.002Z" fill="#01BFFF"/>
  <path d="M39 1.292C30.89 1.292 24.294 7.89 24.294 16s6.598 14.708 14.708 14.708S53.708 24.11 53.708 16 47.11 1.292 39.001 1.292Zm-1.269 16.132a.097.097 0 0 1-.036.073l-.159.126c-.39.31-.78.619-1.176.92-.403.316-.812.618-1.22.923l-.152.113a.094.094 0 0 1-.113 0l-.063-.045c-.776-.579-1.513-1.164-2.2-1.708a.095.095 0 0 1-.035-.082l.217-2.614a.094.094 0 0 1 .094-.086l4.786.383a.096.096 0 0 1 .087.096l-.03 1.901Zm12.505 7.074c-.58.508-1.273.779-1.817.96a9.178 9.178 0 0 1-1.965.394 7.537 7.537 0 0 1-1.012.022 3.432 3.432 0 0 1-1.04-.194c-.672-.253-1.228-.665-1.728-1.072a17.52 17.52 0 0 1-1.438-1.348 45.9 45.9 0 0 1-.888-.955c-.144-.159-.288-.316-.43-.47a1.716 1.716 0 0 0-.308-.278c-.1-.07-.212-.133-.33-.202l-.062-.037c-.246-.142-.619-.358-.842-.738-.235-.401-.22-.846-.167-1.148.059-.351.167-.691.321-1.012a1.248 1.248 0 0 1 .42-.447.64.64 0 0 0 .129-.111 1.178 1.178 0 0 0 .156-.331 1.81 1.81 0 0 1 .106-.277c.091-.17.215-.319.364-.44.27-.218.57-.393.89-.52a6.222 6.222 0 0 1 1.934-.449c.067-.003.133-.005.2-.005h.014a2.845 2.845 0 0 0-.072-.077c-.054-.057-.115-.115-.18-.175l-.082-.077a3.969 3.969 0 0 1-.525-.596l-.063-.09a3.513 3.513 0 0 0-.14-.202 3.498 3.498 0 0 0-1.009-.882c-.41-.252-.862-.404-1.29-.54-.454-.151-.917-.277-1.386-.379a7.102 7.102 0 0 0-1.475-.168 4.805 4.805 0 0 0-1.292.168c-.789.213-1.583.66-2.428 1.367-.368.308-.718.637-1.05.984-.093.096-.19.193-.281.288-.241.246-.49.5-.72.762-.576.644-1.105 1.396-1.665 2.365-.485.838-.946 1.713-1.395 2.56l-.011.02a.095.095 0 0 1-.084.051c-.95-.059-1.55-1.103-1.06-1.875L37.298 2.375c.338-.534 1.185-.534 1.523 0l3.112 4.906a2.302 2.302 0 0 1 0 2.495l-1.89 2.978c.331.115.65.262.953.44.46.268.865.622 1.19 1.044.059.074.118.164.169.24l.05.074c.062.09.131.175.204.257.076.084.157.166.24.247l.072.067.133.126 1.135-1.791c.369-.582 1.291-.582 1.66 0l3.877 6.112a.963.963 0 0 1-.132 1.209c.47.4.86.959 1.127 1.624.076.17.132.35.165.535.03.201.02.407-.03.604-.09.345-.297.667-.618.956Z" fill="url(#b)"/>
  <path d="m40.135 18.218.227.004h.109a.532.532 0 0 0 .333-.149c.094-.1.18-.207.259-.32.078-.11.163-.215.252-.315.197-.227.436-.413.703-.55.132-.065.269-.122.408-.17.058-.014.106-.03.154-.045.091-.03.184-.053.278-.068.126-.013.262-.02.401-.022a4.908 4.908 0 0 0-.325-.504h-.005c-.127.001-.253.01-.378.027-.312.044-.62.112-.92.206-.74.23-1.256.498-1.624.838-.096.09-.174.197-.23.315a1.2 1.2 0 0 0-.055.184c-.022.092-.05.183-.084.271a1.338 1.338 0 0 1-.141.27c-.065.085-.14.161-.226.226a.612.612 0 0 0-.225.266c-.016.037-.03.078-.043.119.085-.086.176-.166.272-.24.248-.193.547-.312.86-.343Z" fill="#01BFFF"/>
  <path d="M32.797 17.694c.756.5 1.442.957 2.126 1.435a67.71 67.71 0 0 1 1.17-.93c.395-.305.78-.6 1.171-.897l.055-.042.063-1.484-4.324-.437-.261 2.355Zm1.267-.466a3.693 3.693 0 0 1 1.155-.604c.21-.068.43-.178.66-.13a.99.99 0 0 1 .63.365.047.047 0 0 1-.007.063l-.006.003a1.864 1.864 0 0 1-.608.266c-.184.055-.378-.022-.575-.018a7.096 7.096 0 0 0-1.231.116.035.035 0 0 1-.03-.027.038.038 0 0 1 .011-.034Z" fill="url(#c)"/>
  <path d="M50.135 22.642c-.247-.61-.588-1.094-1.015-1.435-.447-.369-.997-.605-1.575-.856l-.044-.019c-.273-.118-.59-.257-.901-.422a45.681 45.681 0 0 1-.637-.37l-.21-.126-.834-.5-.415-.259-.073-.046c-.117-.076-.229-.147-.359-.25l-.048-.037a.1.1 0 0 1-.031-.045l-.023-.069a9.211 9.211 0 0 0-.536-1.312l-.03-.056c-.026.005-.052.012-.079.016-.085.016-.17.037-.252.063-.047.014-.094.029-.142.04a2.049 2.049 0 0 0-.258.063l-.135.039c-.12.042-.238.091-.352.148-.227.117-.43.276-.598.469a3.206 3.206 0 0 0-.22.278c-.094.134-.198.26-.311.378a.895.895 0 0 1-.583.25h-.119l-.204-.004a1.3 1.3 0 0 0-.659.267c-.205.16-.387.348-.54.559l-.118.136c-.033.307-.003.541.093.71.116.213.363.367.607.509l.071.04c.119.069.241.14.365.226.15.104.289.227.41.364.15.162.296.322.442.482.294.325.573.63.87.936.437.459.9.893 1.386 1.3.409.333.954.746 1.543.966.276.097.564.15.856.157.1.005.2.008.3.008.195 0 .405-.01.622-.029a8.542 8.542 0 0 0 1.828-.365c.697-.228 1.216-.499 1.588-.826.224-.202.372-.424.428-.64a.937.937 0 0 0 .017-.357 1.727 1.727 0 0 0-.125-.381Zm-2.99 1.562a3.367 3.367 0 0 0-.59-.077c-.097-.006-.192.028-.28 0a.901.901 0 0 1-.292-.14.023.023 0 0 1-.003-.032.478.478 0 0 1 .315-.166c.113-.019.218.038.319.075.2.072.387.178.55.315a.019.019 0 0 1 .006.018.017.017 0 0 1-.01.01.018.018 0 0 1-.015-.003Zm2.484-1.518c-.04.1-.1.193-.173.273-.06.071-.158.093-.238.149a3.516 3.516 0 0 0-.465.382.017.017 0 0 1-.014 0 .017.017 0 0 1-.005-.004.018.018 0 0 1-.005-.009v-.01a1.8 1.8 0 0 1 .302-.557c.066-.084.126-.189.232-.232a.481.481 0 0 1 .36-.019.022.022 0 0 1 .009.015l-.001.01-.002.002Z" fill="url(#d)"/>
  <path d="M39 1.292C30.89 1.292 24.294 7.89 24.294 16s6.598 14.708 14.708 14.708S53.708 24.11 53.708 16 47.11 1.292 39.001 1.292Zm-1.269 16.132a.097.097 0 0 1-.036.073l-.159.126c-.39.31-.78.619-1.176.92-.403.316-.812.618-1.22.923l-.152.113a.094.094 0 0 1-.113 0l-.063-.045c-.776-.579-1.513-1.164-2.2-1.708a.095.095 0 0 1-.035-.082l.217-2.614a.094.094 0 0 1 .094-.086l4.786.383a.096.096 0 0 1 .087.096l-.03 1.901Zm12.505 7.074c-.58.508-1.273.779-1.817.96a9.178 9.178 0 0 1-1.965.394 7.537 7.537 0 0 1-1.012.022 3.432 3.432 0 0 1-1.04-.194c-.672-.253-1.228-.665-1.728-1.072a17.52 17.52 0 0 1-1.438-1.348 45.9 45.9 0 0 1-.888-.955c-.144-.159-.288-.316-.43-.47a1.716 1.716 0 0 0-.308-.278c-.1-.07-.212-.133-.33-.202l-.062-.037c-.246-.142-.619-.358-.842-.738-.235-.401-.22-.846-.167-1.148.059-.351.167-.691.321-1.012a1.248 1.248 0 0 1 .42-.447.64.64 0 0 0 .129-.111 1.178 1.178 0 0 0 .156-.331 1.81 1.81 0 0 1 .106-.277c.091-.17.215-.319.364-.44.27-.218.57-.393.89-.52a6.222 6.222 0 0 1 1.934-.449c.067-.003.133-.005.2-.005h.014a2.845 2.845 0 0 0-.072-.077c-.054-.057-.115-.115-.18-.175l-.082-.077a3.969 3.969 0 0 1-.525-.596l-.063-.09a3.513 3.513 0 0 0-.14-.202 3.498 3.498 0 0 0-1.009-.882c-.41-.252-.862-.404-1.29-.54-.454-.151-.917-.277-1.386-.379a7.102 7.102 0 0 0-1.475-.168 4.805 4.805 0 0 0-1.292.168c-.789.213-1.583.66-2.428 1.367-.368.308-.718.637-1.05.984-.093.096-.19.193-.281.288-.241.246-.49.5-.72.762-.576.644-1.105 1.396-1.665 2.365-.485.838-.946 1.713-1.395 2.56l-.011.02a.095.095 0 0 1-.084.051c-.95-.059-1.55-1.103-1.06-1.875L37.298 2.375c.338-.534 1.185-.534 1.523 0l3.112 4.906a2.302 2.302 0 0 1 0 2.495l-1.89 2.978c.331.115.65.262.953.44.46.268.865.622 1.19 1.044.059.074.118.164.169.24l.05.074c.062.09.131.175.204.257.076.084.157.166.24.247l.072.067.133.126 1.135-1.791c.369-.582 1.291-.582 1.66 0l3.877 6.112a.963.963 0 0 1-.132 1.209c.47.4.86.959 1.127 1.624.076.17.132.35.165.535.03.201.02.407-.03.604-.09.345-.297.667-.618.956Z" fill="url(#e)"/>
  <path d="m40.135 18.218.227.004h.109a.532.532 0 0 0 .333-.149c.094-.1.18-.207.259-.32.078-.11.163-.215.252-.315.197-.227.436-.413.703-.55.132-.065.269-.122.408-.17.058-.014.106-.03.154-.045.091-.03.184-.053.278-.068.126-.013.262-.02.401-.022a4.908 4.908 0 0 0-.325-.504h-.005c-.127.001-.253.01-.378.027-.312.044-.62.112-.92.206-.74.23-1.256.498-1.624.838-.096.09-.174.197-.23.315a1.2 1.2 0 0 0-.055.184c-.022.092-.05.183-.084.271a1.338 1.338 0 0 1-.141.27c-.065.085-.14.161-.226.226a.612.612 0 0 0-.225.266c-.016.037-.03.078-.043.119.085-.086.176-.166.272-.24.248-.193.547-.312.86-.343Z" fill="url(#f)"/>
  <circle cx="16" cy="16" r="15.488" fill="#6869E7" stroke="#fff" stroke-width="1.024"/>
  <path d="M11.213 17.943a3.615 3.615 0 0 1 1.13-.59l.117-.04c.17-.062.346-.125.529-.087a.969.969 0 0 1 .616.357.046.046 0 0 1-.008.061l-.005.003c-.18.122-.382.21-.595.26-.11.033-.224.017-.34.001a1.418 1.418 0 0 0-.223-.018 6.944 6.944 0 0 0-1.203.113.033.033 0 0 1-.013-.005.033.033 0 0 1-.015-.04.037.037 0 0 1 .01-.015Z" fill="#fff"/>
  <path fill-rule="evenodd" clip-rule="evenodd" d="M14.8 18.135a.095.095 0 0 1-.036.071l-.155.123c-.381.303-.763.605-1.15.9-.344.269-.693.528-1.042.788l-.152.113-.148.11a.093.093 0 0 1-.11 0l-.063-.043c-.74-.553-1.445-1.111-2.104-1.632l-.046-.037a.092.092 0 0 1-.035-.08l.213-2.554a.092.092 0 0 1 .091-.085l4.68.375a.093.093 0 0 1 .085.093l-.028 1.858Zm-4.826.264c.74.489 1.41.935 2.08 1.401.38-.308.76-.61 1.144-.908.386-.298.761-.587 1.145-.876l.054-.041.062-1.45-4.23-.427-.255 2.301Z" fill="#fff"/>
  <path d="M23.43 24.684a3.287 3.287 0 0 1 .59.078.016.016 0 0 0 .011-.01.018.018 0 0 0-.005-.017 1.76 1.76 0 0 0-.539-.308 2.136 2.136 0 0 1-.055-.021.481.481 0 0 0-.257-.052.468.468 0 0 0-.308.162.022.022 0 0 0-.005.016c.001.006.004.012.008.015a.887.887 0 0 0 .285.137c.052.017.107.01.164.005a.69.69 0 0 1 .11-.005ZM26.267 23.543a.88.88 0 0 0 .17-.267v-.003l.001-.004v-.004a.022.022 0 0 0-.002-.01l-.002-.001-.001-.002-.002-.002a.022.022 0 0 0-.008-.004.471.471 0 0 0-.346.023c-.083.034-.137.107-.19.178a1.96 1.96 0 0 1-.036.048c-.13.163-.23.347-.295.545a.017.017 0 0 0 .004.018.015.015 0 0 0 .006.004h.002l.001.001h.003l.007-.001a.393.393 0 0 0 .688-.52Z" fill="#fff"/>
  <path fill-rule="evenodd" clip-rule="evenodd" d="M27.03 25.047c-.568.496-1.246.76-1.779.938a8.985 8.985 0 0 1-1.92.384 7.382 7.382 0 0 1-.99.022 3.356 3.356 0 0 1-1.018-.19c-.657-.246-1.2-.65-1.69-1.047a17.119 17.119 0 0 1-1.406-1.317 44.926 44.926 0 0 1-.868-.933l-.421-.46a1.679 1.679 0 0 0-.301-.27 4.348 4.348 0 0 0-.31-.191h-.001l-.011-.007-.062-.036c-.24-.14-.604-.35-.822-.721-.23-.392-.217-.827-.164-1.123.058-.342.163-.675.314-.988a1.22 1.22 0 0 1 .41-.437.627.627 0 0 0 .127-.108 1.155 1.155 0 0 0 .153-.324c.027-.093.061-.183.103-.27.09-.165.21-.312.356-.43.264-.213.557-.384.871-.509a6.098 6.098 0 0 1 1.89-.438c.066-.003.13-.005.196-.005h.014a3.048 3.048 0 0 0-.227-.229l-.018-.017-.081-.076a3.884 3.884 0 0 1-.514-.582l-.061-.088a3.388 3.388 0 0 0-.138-.197 3.42 3.42 0 0 0-.986-.862c-.402-.246-.843-.394-1.261-.528-.445-.147-.898-.27-1.356-.37a6.952 6.952 0 0 0-1.443-.163 4.707 4.707 0 0 0-1.263.164c-.772.207-1.548.644-2.375 1.335-.36.301-.702.623-1.027.961a27.01 27.01 0 0 1-.137.141l-.138.14c-.236.241-.48.49-.703.745-.564.63-1.081 1.365-1.63 2.311-.436.755-.852 1.539-1.258 2.304l-.105.197-.011.021a.093.093 0 0 1-.082.05c-.93-.059-1.516-1.078-1.036-1.833L14.375 3.43c.33-.521 1.159-.521 1.49 0l3.043 4.793a2.247 2.247 0 0 1 0 2.438l-1.849 2.91c.325.112.637.257.932.43.45.262.846.608 1.165 1.02.057.072.115.16.165.235l.048.071c.062.088.129.172.2.252.074.082.153.162.235.241l.07.066.065.062h.001l.065.061 1.109-1.75c.361-.569 1.263-.569 1.624 0l3.792 5.972a.94.94 0 0 1-.13 1.18c.46.392.841.938 1.102 1.588.075.167.129.342.162.522a1.52 1.52 0 0 1-.03.59c-.087.338-.29.652-.605.935Zm-1.092-3.216c.418.334.751.806.992 1.402.055.12.096.244.122.373a.914.914 0 0 1-.016.348c-.055.212-.2.428-.418.625-.364.32-.872.585-1.554.808-.58.183-1.18.303-1.787.357a7.056 7.056 0 0 1-.902.02 2.738 2.738 0 0 1-.836-.153c-.577-.216-1.11-.619-1.51-.945a16.567 16.567 0 0 1-1.356-1.27c-.29-.298-.562-.597-.85-.914a80.142 80.142 0 0 0-.432-.47 2.252 2.252 0 0 0-.402-.357c-.118-.083-.235-.15-.35-.217l-.006-.004-.07-.039c-.238-.138-.48-.289-.593-.497-.094-.165-.123-.394-.091-.694l.007-.008.003-.004.01-.01c.03-.037.062-.074.096-.11.149-.207.326-.39.527-.546.186-.145.41-.236.644-.261l.2.003h.117a.877.877 0 0 0 .57-.243c.11-.116.212-.24.304-.37.066-.095.138-.185.215-.272.164-.189.362-.344.585-.458.111-.055.227-.104.344-.145l.132-.037c.083-.026.167-.047.253-.062l.11-.031.028-.008a2.23 2.23 0 0 1 .247-.062l.046-.009.031-.006a.274.274 0 0 0 .014.026l.003.006.012.022c.208.414.383.842.525 1.282l.022.067a.096.096 0 0 0 .03.045l.047.036a4.203 4.203 0 0 0 .338.235l.014.008.07.046.407.252.815.49.206.122c.204.12.405.239.622.362.305.161.614.297.881.412l.044.019.018.008c.559.242 1.09.472 1.522.828Zm-8.565-2.917-.222-.003c-.306.03-.599.146-.841.336-.094.072-.183.15-.266.233l.007-.021a.598.598 0 0 1 .254-.354c.084-.064.159-.139.222-.222.056-.082.102-.17.138-.263.034-.086.061-.175.082-.265.013-.061.031-.121.054-.18a.999.999 0 0 1 .225-.307c.36-.333.864-.594 1.587-.82a5.66 5.66 0 0 1 .9-.2c.123-.017.246-.026.37-.027h.005c.116.157.222.322.318.492a4.63 4.63 0 0 0-.392.022 1.73 1.73 0 0 0-.272.066l-.007.003c-.045.014-.09.028-.143.041-.137.047-.27.103-.4.166a2.296 2.296 0 0 0-.687.537c-.087.099-.17.201-.247.308-.076.11-.16.215-.253.313a.521.521 0 0 1-.325.145h-.08a.13.13 0 0 0-.027 0Z" fill="#fff"/>
  <defs>
    <linearGradient id="a" x1="23.325" y1="13.742" x2="55.005" y2="18.305" gradientUnits="userSpaceOnUse">
      <stop stop-color="#00BB2E"/>
      <stop offset=".53" stop-color="#0091DE"/>
      <stop offset=".67" stop-color="#0097D9"/>
      <stop offset=".86" stop-color="#00A7CB"/>
      <stop offset="1" stop-color="#00B8BC"/>
    </linearGradient>
    <linearGradient id="b" x1="26.241" y1="3.24" x2="52.397" y2="29.396" gradientUnits="userSpaceOnUse">
      <stop offset=".02" stop-color="#00F856"/>
      <stop offset=".05" stop-color="#00EB67"/>
      <stop offset=".11" stop-color="#00D08B"/>
      <stop offset=".18" stop-color="#00B9A9"/>
      <stop offset=".25" stop-color="#00A7C1"/>
      <stop offset=".33" stop-color="#009BD1"/>
      <stop offset=".42" stop-color="#0093DB"/>
      <stop offset=".53" stop-color="#0091DE"/>
      <stop offset=".6" stop-color="#0097E2"/>
      <stop offset=".7" stop-color="#00A7EE"/>
      <stop offset=".8" stop-color="#01BFFF"/>
      <stop offset="1" stop-color="#00D0FF"/>
    </linearGradient>
    <linearGradient id="c" x1="26.392" y1="2.685" x2="54.486" y2="32.353" gradientUnits="userSpaceOnUse">
      <stop offset=".04" stop-color="#00D18A"/>
      <stop offset=".1" stop-color="#00C997"/>
      <stop offset=".36" stop-color="#00A6D1"/>
      <stop offset=".49" stop-color="#0098E8"/>
      <stop offset=".59" stop-color="#00A0ED"/>
      <stop offset=".74" stop-color="#01B5F9"/>
      <stop offset=".8" stop-color="#01BFFF"/>
      <stop offset="1" stop-color="#00B5BF"/>
    </linearGradient>
    <linearGradient id="d" x1="26.392" y1="2.685" x2="54.485" y2="32.353" gradientUnits="userSpaceOnUse">
      <stop offset=".04" stop-color="#00D18A"/>
      <stop offset=".1" stop-color="#00C997"/>
      <stop offset=".36" stop-color="#00A6D1"/>
      <stop offset=".49" stop-color="#0098E8"/>
      <stop offset=".59" stop-color="#00A0ED"/>
      <stop offset=".74" stop-color="#01B5F9"/>
      <stop offset=".8" stop-color="#01BFFF"/>
      <stop offset="1" stop-color="#00B5BF"/>
    </linearGradient>
    <linearGradient id="e" x1="26.392" y1="2.685" x2="54.486" y2="32.353" gradientUnits="userSpaceOnUse">
      <stop offset=".04" stop-color="#00D18A"/>
      <stop offset=".1" stop-color="#00C997"/>
      <stop offset=".36" stop-color="#00A6D1"/>
      <stop offset=".49" stop-color="#0098E8"/>
      <stop offset=".59" stop-color="#00A0ED"/>
      <stop offset=".74" stop-color="#01B5F9"/>
      <stop offset=".8" stop-color="#01BFFF"/>
      <stop offset="1" stop-color="#00B5BF"/>
    </linearGradient>
    <linearGradient id="f" x1="26.392" y1="2.685" x2="54.485" y2="32.353" gradientUnits="userSpaceOnUse">
      <stop offset=".04" stop-color="#00D18A"/>
      <stop offset=".1" stop-color="#00C997"/>
      <stop offset=".36" stop-color="#00A6D1"/>
      <stop offset=".49" stop-color="#0098E8"/>
      <stop offset=".59" stop-color="#00A0ED"/>
      <stop offset=".74" stop-color="#01B5F9"/>
      <stop offset=".8" stop-color="#01BFFF"/>
      <stop offset="1" stop-color="#00B5BF"/>
    </linearGradient>
  </defs>
</svg>